<?xml version="1.0" encoding="utf-8"?>
<!-- Generator: Adobe Illustrator 19.0.1, SVG Export Plug-In . SVG Version: 6.00 Build 0)  -->
<svg version="1.1" id="Слой_1" xmlns="http://www.w3.org/2000/svg" xmlns:xlink="http://www.w3.org/1999/xlink" x="0px" y="0px"
	 viewBox="0 0 381.7 111" style="enable-background:new 0 0 381.7 111;" xml:space="preserve">
<g>
	<g>
		<rect width="3.7" height="111"/>
	</g>
	<g>
		<path d="M22.7,111H21V0h1.7V111z M13.2,111h-1.7V0h1.7V111z M7.5,111H5.8V0h1.7V111z"/>
	</g>
	<g>
		<rect x="26.6" width="7.7" height="111"/>
	</g>
	<g>
		<path d="M43.7,111H42V0h1.7V111z M39.9,111h-1.7V0h1.7V111z"/>
	</g>
	<g>
		<rect x="45.7" width="7.7" height="111"/>
	</g>
	<g>
		<path d="M64.7,111H63V0h1.7V111z M59,111h-1.7V0H59V111z"/>
	</g>
	<g>
		<rect x="68.6" width="7.7" height="111"/>
	</g>
	<g>
		<path d="M85.7,111H84V0h1.7V111z M80,111h-1.7V0H80V111z"/>
	</g>
	<g>
		<rect x="91.5" width="7.7" height="111"/>
	</g>
	<g>
		<path d="M112.5,111h-1.7V0h1.7V111z M106.7,111H105V0h1.7V111z M102.9,111h-1.7V0h1.7V111z"/>
	</g>
	<g>
		<rect x="116.4" width="7.7" height="111"/>
	</g>
	<g>
		<path d="M135.4,111h-3.7V0h3.7V111z M129.7,111H126V0h3.7V111z"/>
	</g>
	<g>
		<rect x="137.4" width="7.7" height="111"/>
	</g>
	<g>
		<path d="M154.5,111h-1.7V0h1.7V111z M148.7,111H147V0h1.7V111z"/>
	</g>
	<g>
		<rect x="162.3" width="3.7" height="111"/>
	</g>
	<g>
		<path d="M175.5,111h-1.7V0h1.7V111z M169.7,111H168V0h1.7V111z"/>
	</g>
	<g>
		<rect x="179.4" width="7.7" height="111"/>
	</g>
	<g>
		<path d="M196.5,111h-1.7V0h1.7V111z M190.7,111H189V0h1.7V111z"/>
	</g>
	<g>
		<path d="M213.7,111H210V0h3.7V111z M202.2,111h-3.7V0h3.7V111z"/>
	</g>
	<g>
		<path d="M242.3,111h-1.7V0h1.7V111z M232.7,111H231V0h1.7V111z M227,111h-1.7V0h1.7V111z M223.2,111h-1.7V0h1.7V111z"/>
	</g>
	<g>
		<rect x="246.3" width="3.7" height="111"/>
	</g>
	<g>
		<rect x="252" width="1.7" height="111"/>
	</g>
	<g>
		<rect x="257.7" width="3.7" height="111"/>
	</g>
	<g>
		<rect x="265.3" width="5.7" height="111"/>
	</g>
	<g>
		<path d="M284.3,111h-1.7V0h1.7V111z M274.7,111H273V0h1.7V111z"/>
	</g>
	<g>
		<rect x="286.4" width="3.7" height="111"/>
	</g>
	<g>
		<rect x="294" width="1.7" height="111"/>
	</g>
	<g>
		<rect x="301.5" width="7.7" height="111"/>
	</g>
	<g>
		<rect x="311.2" width="1.7" height="111"/>
	</g>
	<g>
		<rect x="314.9" width="7.7" height="111"/>
	</g>
	<g>
		<rect x="324.5" width="5.7" height="111"/>
	</g>
	<g>
		<rect x="332.2" width="1.7" height="111"/>
	</g>
	<g>
		<rect x="336" width="5.7" height="111"/>
	</g>
	<g>
		<rect x="343.7" width="1.7" height="111"/>
	</g>
	<g>
		<path d="M360.7,111H357V0h3.7V111z M355,111h-3.7V0h3.7V111z"/>
	</g>
	<g>
		<rect x="366.5" width="5.7" height="111"/>
	</g>
	<g>
		<rect x="374.2" width="1.7" height="111"/>
	</g>
	<g>
		<rect x="378" width="3.7" height="111"/>
	</g>
</g>
</svg>
