<?xml version="1.0" encoding="UTF-8" standalone="no"?>
<!-- Created with Inkscape (http://www.inkscape.org/) -->

<svg
   xmlns:dc="http://purl.org/dc/elements/1.1/"
   xmlns:cc="http://creativecommons.org/ns#"
   xmlns:rdf="http://www.w3.org/1999/02/22-rdf-syntax-ns#"
   xmlns:svg="http://www.w3.org/2000/svg"
   xmlns="http://www.w3.org/2000/svg"
   xmlns:sodipodi="http://sodipodi.sourceforge.net/DTD/sodipodi-0.dtd"
   xmlns:inkscape="http://www.inkscape.org/namespaces/inkscape"
   width="283"
   height="53"
   viewBox="0 0 282.99999 52.999999"
   id="svg2"
   version="1.1"
   inkscape:version="0.91 r13725"
   sodipodi:docname="coll-hello.svg">
  <defs
     id="defs4" />
  <sodipodi:namedview
     id="base"
     pagecolor="#ffffff"
     bordercolor="#666666"
     borderopacity="1.0"
     inkscape:pageopacity="0.0"
     inkscape:pageshadow="2"
     inkscape:zoom="1"
     inkscape:cx="339.28725"
     inkscape:cy="-23.105522"
     inkscape:document-units="px"
     inkscape:current-layer="layer1"
     showgrid="false"
     fit-margin-top="0"
     fit-margin-left="30"
     fit-margin-right="30"
     fit-margin-bottom="0"
     inkscape:window-width="1920"
     inkscape:window-height="1017"
     inkscape:window-x="-8"
     inkscape:window-y="-8"
     inkscape:window-maximized="1"
     units="px" />
  <metadata
     id="metadata7">
    <rdf:RDF>
      <cc:Work
         rdf:about="">
        <dc:format>image/svg+xml</dc:format>
        <dc:type
           rdf:resource="http://purl.org/dc/dcmitype/StillImage" />
        <dc:title></dc:title>
      </cc:Work>
    </rdf:RDF>
  </metadata>
  <g
     inkscape:label="Layer 1"
     inkscape:groupmode="layer"
     id="layer1"
     transform="translate(-58.022641,-422.46487)">
    <g
       style="font-style:normal;font-weight:normal;font-size:70px;line-height:125%;font-family:sans-serif;letter-spacing:0px;word-spacing:0px;fill:#000000;fill-opacity:1;stroke:none;stroke-width:1px;stroke-linecap:butt;stroke-linejoin:miter;stroke-opacity:1"
       id="text4136"
       transform="matrix(0.88364859,0,0,0.88364859,-49.038555,55.321017)">
      <path
         d="m 167.91574,475.05472 q -0.0684,-0.13672 -0.20508,-0.41016 -0.13672,-0.3418 -0.20508,-0.47851 0,-0.0684 -0.0684,-0.20508 -0.0684,-0.20508 -0.0684,-0.27344 l -0.20508,0 q 0,0.13672 -0.13672,0.41016 -0.0684,0.20507 -0.13672,0.34179 -0.13672,0.41016 -0.27344,0.47852 -0.13672,0.0684 -0.20508,-0.0684 -0.0684,-0.13672 -0.0684,-0.3418 0,-0.20508 0.13671,-0.34179 -0.61523,0.54687 -0.61523,0.27343 0.0684,-0.27343 -0.13672,-0.47851 l -0.47851,0 0.13671,0.20508 q 0,0.34179 -0.27343,0.0684 -0.27344,-0.27344 -0.27344,-0.41016 0.13672,-6.42578 -0.27344,-12.85156 -0.3418,-6.42578 -0.20508,-12.91993 0.13672,2.1875 0.13672,4.44336 0,2.1875 0.3418,4.375 l 0.13672,-0.34179 0,-6.83594 q 0.34179,-0.20508 0.13672,-0.68359 -0.20508,-0.47852 -0.13672,-0.82032 l 0.13672,0.20508 0,-1.64062 -0.13672,-0.13672 q 0.0684,-0.13672 0.13672,-0.61524 0.13672,-0.47851 0.13672,-0.61523 0.0684,-0.3418 0.0684,-0.82031 0,-0.47852 -0.0684,-0.54688 l -0.27344,-0.13672 q -0.0684,0 -0.0684,-0.41015 0,-0.41016 0.0684,-0.61524 0,-0.34179 0.13672,-0.75195 0.13672,-0.41016 0.27343,-0.75195 0.20508,-0.0684 0.41016,0.13671 l 0,-0.54687 q 0.54688,0.0684 0.27344,0.75195 -0.27344,0.6836 -0.3418,0.75196 0,-0.0684 0.13672,-0.0684 0.20508,0 0.27344,0.0684 0.0684,0.0684 0.0684,0.41015 0.0684,0.3418 0.0684,0.75196 0,0.41015 -0.0684,0.88867 0,0.41015 0.0684,0.61523 0.0684,0.13672 0.13671,0.6836 0.13672,0.47851 0.20508,0.61523 l 0.13672,0 q 0.13672,0.13672 0.13672,0.3418 0.3418,-1.50391 0,-3.00782 -0.13672,0.27344 -0.27344,0.13672 l 0,-0.54687 0.27344,0 0,-1.23047 q -0.13672,0.20508 -0.27344,-0.20508 -0.0684,-0.41016 0,-0.54687 l 0.13672,0 q 0.13672,0.13671 0.13672,0.34179 l 0.13672,-0.20508 0,-9.50195 q 0.0684,-1.77734 0.41016,-3.75976 0.34179,-2.05079 0.20507,-3.82813 l -0.27343,0.88867 q -0.13672,-1.09375 0.0684,-2.1875 0.20507,-1.09375 0.47851,-2.11914 0.20508,-0.13672 0.27344,-0.34179 0.13672,-0.27344 0.3418,-0.41016 0.47851,-0.27344 0.47851,-0.47852 0.0684,-0.27343 0.41016,-0.41015 0.54687,-0.27344 0.82031,-0.20508 0.3418,0 0.95703,-0.13672 0.27344,0 0.88867,-0.20508 0.6836,-0.27344 0.88867,0.20508 0.27344,-0.47852 0.47852,-0.54687 0.27344,-0.0684 0.47852,0 0.20507,0 0.41015,0.0683 0.27344,0.0684 0.47852,-0.0683 0.0684,-0.0684 0.27344,-0.27344 0.20507,-0.27344 0.27343,-0.3418 0.0684,0 0.47852,0.0684 0.47851,0.0684 0.95703,0.20508 0.54687,0.0684 1.02539,0.27344 0.47852,0.13671 0.54688,0.20507 0,0 0,0.54688 0,0.54687 -0.0684,1.23047 0,0.61523 -0.0684,1.16211 0,0.54687 0,0.61523 -0.41016,2.32422 -0.6836,4.64844 -0.27343,2.25586 -0.41015,4.58008 0,0.13672 0,1.02539 0.0684,0.82031 0,0.95703 0,0.13672 -0.0684,0.61523 0,0.41016 -0.0684,0.54688 -0.0684,2.80273 -0.0684,5.60547 0.0684,2.73437 0.20508,5.53711 0,0.13672 0.0684,0.47851 0.0684,0.3418 0.13671,0.47852 0.0684,0.13672 0.13672,0.20508 0.0684,0.20507 -0.13672,0.20507 0.88868,0.13672 1.57227,-0.13671 0.75195,-0.27344 1.64063,-0.27344 0.0684,0 0.41015,0 0.3418,0 0.6836,0 0.41015,0 0.75195,0 0.3418,0 0.41015,0 0.0684,0 0.27344,-0.0684 0.27344,-0.0684 0.3418,-0.13672 1.98242,-0.0684 3.89648,0.13672 1.98243,0.13672 3.96485,0.0684 0.68359,0.54687 0.95703,0.13672 0.3418,-0.47852 0.41015,-1.23047 0.13672,-0.82031 0.13672,-1.57227 0,-0.82031 0,-0.95703 l 0,-14.69726 -0.13672,-0.20508 0,-2.5293 0.13672,-0.27344 0,-6.69922 q 0,-0.41015 0.3418,-0.54687 0.41016,-0.13672 0.68359,-0.0684 l -0.27343,0.13672 q -0.0684,0.3418 -0.13672,0.75195 0,0.41016 -0.13672,0.75195 l 0,7.45118 q 0,0.13672 0.0684,0.41015 0.0684,0.20508 0.0684,0.3418 0.0684,1.77734 0.13672,3.89648 0.0684,2.05079 0,3.82813 l 0.13672,0 q 0,-0.0684 0.13671,-0.41016 0.13672,-0.34179 0.20508,-0.68359 0.13672,-0.41016 0.13672,-0.68359 0.0684,-0.27344 -0.13672,-0.27344 -0.20508,0 -0.34179,0.13672 0,0 0.0684,-0.13672 0,-0.0684 0.0684,-0.13672 0.13672,-0.20508 0.13672,-1.02539 0.0684,-0.82031 0,-1.77735 -0.0684,-0.95703 -0.13672,-1.8457 0,-0.95703 0,-1.36719 0.13672,-0.95703 0.13672,-1.8457 0,-0.95703 -0.13672,-1.98242 -0.34179,-0.20508 0,-0.47852 l -0.0684,-2.39257 0,0.95703 q -0.34179,-0.88868 -0.20507,-1.84571 l 0.13672,0 q 0.13671,0.13672 0.13671,0.3418 0.20508,-0.27344 0.20508,-0.75195 0,-0.47852 0,-0.88867 0,-0.47852 0.0684,-0.82032 0.13672,-0.41015 0.61524,-0.54687 0.20507,-0.0684 0.41015,0.20508 0.27344,0.27343 0.54688,0.13671 0.20508,-0.20507 0.41015,-0.47851 0.20508,-0.27344 0.61524,0.13672 0.13672,-0.61524 0.20508,-0.6836 0.13671,-0.13671 0.20507,-0.0684 0.0684,0.0684 0.13672,0.20508 0.13672,0.0684 0.3418,-0.0684 0.3418,-0.20507 0.47852,-0.20507 0.13671,0 0.20507,0.0683 0.13672,0.0684 0.20508,0.20508 0.13672,0.0684 0.41016,-0.0684 0.47851,-0.13672 0.68359,-0.27343 0.27344,-0.20508 0.47852,-0.20508 0.20508,0 0.41015,0.20508 0.20508,0.20507 0.54688,0.88867 l 0.13672,-0.13672 q 0.0684,-0.13672 0.20508,-0.41016 0.20507,-0.34179 0.27343,-0.47851 0.13672,-0.13672 0.54688,0.13672 0.41015,0.20507 0.61523,0.13671 0.13672,0 0.75196,-0.0683 0.61523,-0.0684 0.75195,-0.0684 l 0.27344,0 q 0.41015,0.13671 0.54687,0.20507 0.13672,0 0.20508,0 0.13672,0 0.27344,0 0.13672,-0.0684 0.47851,-0.0684 l 0.0684,0.0684 q 0,0.0684 0.0684,0.0684 l 0,1.50391 q 0,0.20508 -0.13672,0.3418 -0.13672,1.70898 -0.20508,3.55468 -0.0684,1.77735 -0.0684,3.55469 0,1.77735 0.13672,3.55469 0.20508,1.77734 0.13672,3.62305 0.20508,0.75195 0,1.77734 -0.20508,0.95703 -0.13672,1.16211 l 0.13672,0 q 0,0.13672 0.0684,0.3418 0,0.13671 0,0.27343 0.0684,0.13672 0.0684,0.27344 0,0.13672 0,0.54688 0,0.41015 0,0.88867 0.0684,0.41015 0.0684,0.82031 0,0.41016 0,0.61523 l 0,0.41016 0.0684,6.69922 -0.27344,0.20508 0,0.68359 q 0,0.0684 0.0684,0.13672 0.0684,0 0.0684,0.0684 0.3418,0.20508 0.75195,0.41016 0.41016,0.20507 0.88868,0.27343 0.75195,0.13672 0.75195,0.27344 0,0.0684 0.47851,0.20508 0.61524,0.13672 1.29883,0.20508 0.6836,0.0684 1.36719,0.27343 -0.13672,0.27344 0.0684,0.47852 0.20508,0.13672 0.47852,0.27344 0.34179,0.13672 0.61523,0.27344 0.3418,0.0683 0.47852,0.27343 -0.0684,0.13672 -0.75196,0.3418 -0.61523,0.13672 -0.88867,0.68359 0.27344,0.41016 0,0.6836 -0.20508,0.27343 -0.68359,0.47851 -0.47852,0.20508 -1.02539,0.27344 -0.47852,0.0684 -0.6836,0.0684 l -2.52929,0 q -0.20508,0.13672 -0.20508,0.95703 0,0.82031 0,1.77734 0.0684,0.95704 0.13672,1.84571 0.13671,0.88867 0.20507,1.23047 0.3418,0.27343 0,0.47851 l 0,2.66602 q 0,0.13672 0,0.47851 0.0684,0.3418 0.0684,0.82032 0,0.41015 0,0.82031 0.0684,0.3418 0.0684,0.41015 0.0684,0.95704 0.20508,2.11915 0.20508,1.1621 -0.3418,2.05078 l -0.13671,-0.13672 0,-2.8711 -0.27344,0.47852 0,1.77734 -0.20508,0.27344 q 0.0684,0.20508 0.0684,0.88867 0,0.61524 -0.0684,0.75196 0,0.13671 -0.13672,0.34179 -0.0684,0.20508 -0.13672,0.27344 -0.0684,0.0684 -0.34179,0.20508 -0.20508,0.0684 -0.27344,0.0684 -0.54688,0.34179 -0.82031,0.75195 -0.20508,0.41016 -0.75196,0.75195 l 0,-0.41015 -0.61523,0.41015 q -0.0684,0 -0.27344,-0.20507 -0.13672,-0.27344 -0.3418,-0.20508 -0.34179,0.0684 -0.34179,0.20508 0.0684,0.0684 -0.41016,-0.0684 0.0684,-0.20508 0,-0.41016 0,-0.27344 -0.13672,-0.3418 -0.0684,-0.0684 -0.27344,0.0684 -0.13671,0.13672 -0.34179,0.6836 0,0.0684 -0.13672,0.27343 -0.0684,0.20508 -0.20508,0.41016 -0.0684,0.20508 -0.27344,0.3418 -0.13672,0.13672 -0.27343,0 l 0,-0.61524 q -0.20508,0.20508 -0.41016,0.20508 l 0,-0.61523 q -0.27344,-0.13672 -0.54688,0.27343 -0.20507,0.3418 -0.54687,0.47852 0,-0.27344 0.13672,-0.75195 0.13672,-0.47852 -0.13672,-0.61524 -0.54688,0.41016 -0.47852,1.02539 0.0684,0.54688 -0.41015,1.09375 -0.0684,-0.34179 -0.20508,-0.34179 -0.13672,0 -0.3418,0.13671 -0.13672,0.13672 -0.34179,0.27344 -0.20508,0.13672 -0.41016,0.0684 l 0,-1.02539 q -0.13672,0.20508 -0.54688,0.61524 -0.34179,0.41015 -0.34179,-0.20508 0,-0.41016 0.13672,-0.95703 0.20507,-0.61524 -0.13672,-0.95704 -0.0684,0 -0.13672,0.13672 0,0.13672 -0.0684,0.13672 l -0.41016,1.23047 q -0.13672,-0.20508 -0.41015,-0.13672 -0.20508,0 -0.47852,0.13672 -0.27344,0.13672 -0.47851,0.3418 -0.20508,0.13672 -0.27344,0.20508 -0.41016,-0.27344 -0.82031,-0.54688 -0.41016,-0.3418 -0.41016,-0.88867 0,-0.20508 0.20508,-0.20508 0.20508,-1.57226 0.34179,-3.28125 0.13672,-1.77734 0.0684,-3.41797 0,-0.13672 -0.0684,-0.75195 0,-0.61524 0,-1.29883 0,-0.75195 -0.0684,-1.36719 0,-0.61523 0,-0.75195 l 0,-0.88867 q -0.0684,-0.75195 0.0684,-1.02539 0.13672,-0.3418 0.0684,-1.02539 0,-0.27344 -0.0684,-0.95703 0,-0.75196 0,-1.50391 0,-0.75195 -0.0684,-1.43555 0,-0.75195 0,-1.02539 0,-0.13672 -0.0684,-0.47851 -0.0684,-0.3418 -0.41016,-0.27344 -0.3418,-0.0684 -1.50391,-0.0684 -1.09375,-0.0684 -1.43554,-0.0684 l -11.00586,0 q -0.3418,-0.0684 -0.61524,-0.47852 l -0.13672,0.13672 q -0.0684,0.0684 -0.0684,0.95703 0,0.82032 0.0684,1.29883 0.0684,1.70899 0.13672,3.41797 0.0684,1.64063 0.27344,3.28125 0.0684,0.27344 -0.0684,0.41016 -0.13672,0.13672 -0.0684,0.34179 0.0684,0.3418 0.20508,0.95704 0.20508,0.61523 -0.0684,0.95703 l 0,2.11914 0.13672,0.27344 0,6.42578 q -0.0684,0.13672 -0.20508,0.61523 -0.13672,0.41016 -0.3418,0.88867 -0.20507,0.41016 -0.41015,0.82032 -0.13672,0.34179 -0.3418,0.34179 -0.0684,0 -0.27344,-0.0684 -0.13672,-0.0684 -0.20508,-0.0684 l -0.27343,0.13672 q -0.27344,0.13672 -0.82032,0.27344 -0.54687,0.13672 -0.82031,0 -0.34179,-0.0684 -0.47851,-0.13672 -0.0684,-0.13672 -0.41016,-0.41016 -0.13672,-0.13671 -0.41016,0.0684 -0.20507,0.13672 -0.34179,0.0684 -0.47852,-0.13672 -0.47852,0.0684 0,0.20508 -0.41015,0.3418 -0.13672,0.13672 -0.75196,-0.27344 -0.61523,-0.41015 -1.16211,-0.27344 -0.13672,0 -0.27343,0.20508 -0.0684,0.20508 -0.20508,0.41016 -0.13672,0.13672 -0.3418,0.13672 -0.13672,0 -0.41016,-0.3418 l -0.27343,0.61524 -0.13672,0 0,-0.61524 -0.3418,0.3418 z m 30.2832,-2.73438 q -0.13671,0 -0.13671,0.13672 0,0.0684 0.13671,0.0684 0.0684,-0.0684 0,-0.20508 z m -6.90429,-1.64062 q 0,-0.0684 0.0684,-0.27344 0.13672,-0.27344 0.27343,-0.54687 0.13672,-0.27344 0.20508,-0.47852 0.13672,-0.20508 0.20508,-0.13672 0.0684,0.27344 -0.0684,1.02539 -0.13672,0.75195 -0.68359,0.61524 l 0,-0.20508 z m 15.38086,-1.02539 q 0,-0.20508 0.0684,-0.3418 0,-0.13672 0.0684,-0.27344 l 0.13671,0 q 0.13672,0.75196 -0.27343,1.09375 l 0,-0.47851 z m -41.42578,-0.27344 q -0.13672,0 -0.13672,0.13672 0,0.13672 0.13672,0.13672 0.13671,0 0.13671,-0.13672 0,-0.13672 -0.13671,-0.13672 z m 0,-0.47852 q -0.13672,0 -0.13672,0.20508 0,0.13672 0.13672,0.13672 0.13671,0 0.13671,-0.13672 0,-0.20508 -0.13671,-0.20508 z m 0,-1.29882 q -0.0684,-0.0684 -0.0684,0.13671 0,0.20508 0.0684,0.13672 0.0684,-0.0684 0.0684,-0.13672 0,-0.13671 -0.0684,-0.13671 z m -0.13672,-2.11914 q -0.13672,0 -0.13672,0.20507 0,0.13672 0.13672,0.13672 0.13672,0 0.13672,-0.13672 0,-0.20507 -0.13672,-0.20507 z m 41.5625,-0.27344 q -0.13672,-0.0684 -0.13672,0.0684 0,0.0684 0.13672,0.0684 0.0684,0 0.0684,-0.0684 0,-0.0684 -0.0684,-0.0684 z m -0.13672,-1.36719 q 0,0.20508 0.13672,0.3418 l 0.13672,0 0,-0.20508 q 0,-0.0684 -0.0684,-0.27344 -0.0684,-0.20508 -0.0684,-0.27344 -0.13672,0.13672 -0.13672,0.41016 z m -0.47852,-1.16211 q -0.13672,0 -0.13672,0.13672 0,0.13672 0.13672,0.13672 0.13672,0 0.13672,-0.13672 0,-0.13672 -0.13672,-0.13672 z m 0.61524,-0.61523 q -0.13672,0 -0.13672,0.13672 0,0.13671 0.13672,0.13671 0.13672,0 0.13672,-0.13671 0,-0.13672 -0.13672,-0.13672 z M 164.97629,461.793 q -0.13672,0 -0.13672,0.13672 0,0.13672 0.13672,0.13672 0.13672,0 0.13672,-0.13672 0,-0.13672 -0.13672,-0.13672 z m 41.69922,-0.3418 q 0,-0.0684 -0.13672,-0.0684 -0.0684,0 0,0.0684 0,0.13672 0.0684,0.13672 0.0684,0 0.0684,-0.13672 z m -41.69922,-0.54687 0.13672,0 q 0.0684,-0.3418 0,-0.75196 -0.0684,-0.41015 -0.13672,-0.75195 l 0,1.50391 z m 41.69922,-0.47852 q -0.13672,-0.0684 -0.13672,0.13672 0,0.20508 0.13672,0.13672 0.0684,0 0.0684,-0.0684 0,-0.13672 -0.0684,-0.20508 z m -0.47852,-0.88867 q 0.0684,0.13672 0.13672,0.20508 0.13672,0.13672 0.3418,0.0684 0,-0.0684 0,-0.27344 0,-0.20508 -0.13672,-0.27344 l -0.3418,0.27344 z m -0.13672,-0.75195 q -0.13672,0 -0.13672,0.20507 0,0.13672 0.13672,0.13672 0.13672,0 0.13672,-0.13672 0,-0.20507 -0.13672,-0.20507 z m 0.47852,-0.41016 q -0.13672,-0.0684 -0.13672,0.13672 0,0.20508 0.13672,0.13672 0.0684,-0.0684 0.0684,-0.13672 0,-0.13672 -0.0684,-0.13672 z m -41.69922,0 q 0,0.27344 0.27344,0.13672 l 0,-0.13672 -0.27344,0 z m 0,-0.47852 0.13672,0 0,-0.13671 -0.13672,0.13671 z m 40.94726,-0.27343 q -0.13671,0 0,0.13672 0.20508,0.13671 0.27344,-0.0684 0.0684,-0.27344 0,-0.41016 -0.0684,0.0684 -0.20508,0.20508 -0.0684,0.0684 -0.0684,0.13672 z m 0.54688,-0.61524 q -0.0684,0 -0.0684,0.13672 0,0.0684 0.0684,0 0.13672,0 0.13672,-0.0684 0,-0.0684 -0.13672,-0.0684 z m 0,-0.61523 q -0.0684,0 -0.0684,0.13672 0,0.0684 0.0684,0 0.27344,0 0,-0.13672 z m 0,-0.54688 q -0.13672,0 -0.13672,0.13672 0,0.13672 0.13672,0.13672 0.13672,0 0.13672,-0.13672 0,-0.13672 -0.13672,-0.13672 z m -0.41016,-0.34179 q -0.13672,0 -0.13672,0.20507 0,0.13672 0.13672,0.13672 0.13672,0 0.13672,-0.13672 0,-0.20507 -0.13672,-0.20507 z m 0.41016,-0.54688 q -0.0684,-0.0684 -0.0684,0.0684 0,0.0684 0.0684,0.0684 0.27344,-0.13672 0,-0.13672 z m -0.54688,-1.36719 q -0.13671,0 -0.13671,0.0684 0,0.0684 0.13671,0.0684 0.0684,0 0.0684,-0.0684 0,-0.0684 -0.0684,-0.0684 z m 0,-0.61523 q 0,-0.0684 -0.13671,-0.0684 -0.0684,0 -0.0684,0.0684 0.0684,0.20508 0.20507,0 z m 5.60547,-3.55469 q 0.0684,-0.0684 -0.0684,-0.0684 -0.0684,0 -0.0684,0.0684 0,0.0684 0.0684,0.0684 0.0684,0 0.0684,-0.0684 z m -44.63867,-0.61523 q -0.13672,0 -0.13672,0.20508 0,0.13671 0.13672,0.13671 0.13672,0 0.13672,-0.13671 0,-0.20508 -0.13672,-0.20508 z m 0.13672,-0.27344 q -0.13672,0 -0.13672,0.13672 0,0.13672 0.13672,0.13672 0.13672,0 0.13672,-0.13672 0,-0.13672 -0.13672,-0.13672 z m -1.02539,-0.13672 q -0.13672,-0.0684 -0.13672,0.0684 0,0.0684 0.13672,0.0684 0.0684,0 0.0684,-0.0684 0,-0.0684 -0.0684,-0.0684 z m 1.02539,-0.61523 q -0.13672,0 -0.13672,0.13672 0,0.13671 0.13672,0.13671 0.13672,0 0.13672,-0.13671 0,-0.13672 -0.13672,-0.13672 z m -0.13672,-0.27344 q 0.20508,-0.20508 0.13672,-0.3418 l -0.13672,0.3418 z m -0.13672,-0.3418 q -0.13672,0 -0.13672,0.13672 0,0.0684 0.13672,0 0.0684,0 0.0684,-0.0684 0,-0.0684 -0.0684,-0.0684 z m -0.75195,-0.54687 q 0,-0.13672 -0.13672,-0.13672 -0.0684,0 0,0.13672 0,0.0684 0.0684,0.0684 0.0684,0 0.0684,-0.0684 z m 0,-0.75196 q 0,-0.13671 -0.13672,-0.13671 -0.0684,0 0,0.13671 0,0.0684 0.0684,0.0684 0.0684,0 0.0684,-0.0684 z m 27.82227,-0.47851 q -0.0684,-0.0684 -0.0684,0.13672 0,0.20508 0.0684,0.13672 0.13671,0 0.13671,-0.0684 0,-0.13672 -0.13671,-0.20508 z m -27.95899,-0.88867 q -0.13672,-0.0684 -0.13672,0.34179 0,0.3418 0.13672,0.27344 0.0684,-0.13672 0.0684,-0.3418 0,-0.20507 -0.0684,-0.27343 z m 27.95899,0.27343 0.13671,0 0,-0.27343 -0.13671,0.13672 0,0.13671 z m -27.95899,-1.02539 q 0,-0.0684 0.0684,-0.27343 0.0684,-0.20508 0.0684,-0.3418 l -0.13672,-0.13672 0,0.75195 z m 27.95899,-0.88867 q -0.0684,-0.13672 -0.0684,0.3418 0,0.47851 0.0684,0.41016 0.13671,-0.13672 0.13671,-0.3418 0,-0.27344 -0.13671,-0.41016 z m 0,-1.5039 q -0.0684,0 -0.0684,0.13671 0,0.0684 0.0684,0 0.13671,0 0.13671,-0.0683 0,-0.0684 -0.13671,-0.0684 z m 0,-0.27344 0.13671,-0.88867 -0.13671,-0.13672 0,1.02539 z m -28.4375,-0.27344 q -0.20508,-0.47851 -0.13672,-0.95703 0.13672,-0.54688 0.68359,-0.68359 l 0,-1.09375 0.20508,0 0,1.98242 -0.13672,0.13672 -0.13672,-0.13672 q -0.0684,0.0684 -0.13672,0.34179 0,0.27344 -0.0684,0.41016 l -0.0684,0.0684 q 0,0.0684 -0.0684,0.0684 l -0.13671,-0.13672 z m 28.4375,-1.98242 q -0.0684,-0.0684 -0.0684,0.27344 0,0.27343 0.0684,0.20507 0.13671,-0.0683 0.13671,-0.20507 0,-0.20508 -0.13671,-0.27344 z m -26.18165,-1.02539 q -0.13671,0 -0.13671,0.13672 0,0.13672 0.13671,0.13672 0.13672,0 0.13672,-0.13672 0,-0.13672 -0.13672,-0.13672 z m 26.18165,-0.27344 q -0.0684,-0.0684 -0.0684,0.13672 0,0.20508 0.0684,0.13672 0.13671,-0.0684 0.13671,-0.13672 0,-0.13672 -0.13671,-0.13672 z m -26.18165,-0.3418 q -0.13671,-0.0684 -0.13671,0.27344 0,0.27344 0.13671,0.20508 0.0684,-0.0684 0.0684,-0.20508 0,-0.20508 -0.0684,-0.27344 z m 26.18165,-0.75195 q -0.0684,0 -0.0684,0.20508 0,0.13672 0.0684,0.13672 0.34179,-0.13672 0,-0.3418 z m 0,-0.54687 q -0.13672,0 -0.13672,0.13671 0,0.13672 0.13672,0.13672 0.13671,0 0.13671,-0.13672 0,-0.13671 -0.13671,-0.13671 z m -27.82227,-1.98243 q 0,0 0,-0.61523 0,-0.68359 0.0684,-1.50391 0.0684,-0.88867 0.0684,-1.77734 0.0684,-0.95703 0.13672,-1.57227 0,-0.13671 0.0684,-0.41015 0.0684,-0.3418 0.0684,-0.47852 0.0684,1.64063 0.0684,3.34961 0,1.70899 -0.3418,3.34961 l -0.13672,-0.3418 z m 3.28125,-0.75195 q -0.13672,0 -0.13672,0.20508 0,0.13672 0.13672,0.13672 0.13672,0 0.13672,-0.13672 0,-0.20508 -0.13672,-0.20508 z m 0.13672,-1.77734 q -0.0684,0 -0.0684,0.13672 0,0.0684 0.0684,0 0.13672,0 0,-0.13672 z m 0,-1.16211 0.13672,0 0,-0.61524 -0.13672,0 0,0.61524 z m 25.77148,-0.75196 q -0.13672,0 -0.13672,0.13672 0,0.13672 0.13672,0.13672 0.13672,0 0.13672,-0.13672 0,-0.13672 -0.13672,-0.13672 z m -25.63476,-0.27343 0.13672,0 0,-1.84571 -0.13672,0.20508 0,1.64063 z m -3.14453,-3.00782 q 0.13671,-1.1621 0.13671,-2.52929 0.0684,-1.36719 0.3418,-2.5293 0.13672,-0.47851 0.27344,0 0.20508,0.47852 0.13672,0.61524 -0.13672,1.1621 -0.41016,2.59765 -0.20508,1.43555 -0.27344,2.73438 l -0.20507,0.13672 0,-1.0254 z m 3.28125,0.75196 q -0.13672,0 -0.13672,0.13672 0,0.13672 0.13672,0.13672 0.13671,0 0.13671,-0.13672 0,-0.13672 -0.13671,-0.13672 z m 0,-0.27344 q 0.13671,0 0.13671,-0.41016 l 0,-0.34179 -0.0684,0.0684 q -0.0684,0 -0.0684,0.0684 l 0,0.61523 z m 25.15625,-1.36719 q 0,0.27344 0.20507,0.47852 0.13672,-0.0684 0.13672,-0.27344 0,-0.27344 0,-0.3418 0,-0.13671 -0.0684,-0.61523 -0.0684,-0.47852 -0.0684,-0.61523 -0.0684,0.13671 -0.13671,0.68359 -0.0684,0.54687 -0.0684,0.68359 z m 0.61523,-0.88867 q 0,-0.0684 -0.0684,-0.0684 -0.0684,0 -0.0684,0.0684 0,0.0684 0.0684,0.0684 0.0684,0 0.0684,-0.0684 z m -27.68555,-0.61523 q 0.13672,-0.0684 0.13672,-0.27344 0.0684,-0.20508 0,-0.3418 l -0.13672,0.61524 z m 0.13672,-0.88868 0.13672,0 0,-0.13671 -0.13672,0.13671 z m 27.13867,-0.13671 q -0.13671,0 -0.13671,0.0684 0,0.0683 0.13671,0.0683 0.0684,0 0.0684,-0.0683 0,-0.0684 -0.0684,-0.0684 z m -27.00195,-0.47852 q -0.0684,0 -0.0684,0.13672 0,0.0684 0.0684,0.0684 0.20508,-0.0684 0,-0.20508 z m 27.00195,0 q -0.13671,0 -0.13671,0.13672 0,0.0684 0.13671,0.0684 0.0684,-0.0684 0,-0.20508 z m 0,-1.43555 q -0.0684,-0.0684 -0.13671,0.13672 0,0.13672 0,0.3418 0,0.20508 0,0.41016 0.0684,0.20507 0.13671,0.13671 0.0684,-0.13671 0.0684,-0.47851 0,-0.41016 -0.0684,-0.54688 z m 0,-0.61523 q -0.13671,0 -0.13671,0.0684 0,0.0684 0.13671,0.0684 0.0684,0 0.0684,-0.0684 0,-0.0684 -0.0684,-0.0684 z m 0,-0.75195 q -0.13671,0 -0.13671,0.0684 0,0.0683 0.13671,0.0683 0.0684,0 0.0684,-0.0683 0,-0.0684 -0.0684,-0.0684 z"
         style="font-style:normal;font-variant:normal;font-weight:normal;font-stretch:normal;font-size:70px;font-family:'KG Life is Messy';-inkscape-font-specification:'KG Life is Messy'"
         id="path4141"
         inkscape:connector-curvature="0" />
      <path
         d="m 216.92941,473.34573 q -0.13672,-0.41015 -0.41015,-0.61523 -0.20508,-0.20508 -0.47852,-0.54688 l 0,-1.77734 q 0,-0.13672 0.0684,-0.75195 0.0684,-0.61524 0.0684,-0.75196 0,-0.0684 0,-1.02539 0.0684,-1.02539 0.0684,-2.32422 0.0684,-1.36718 0.13672,-2.80273 0.0684,-1.43555 0.13672,-2.32422 0,-0.54687 -0.0684,-1.16211 -0.0684,-0.68359 -0.0684,-1.23047 0,-0.34179 -0.0684,-1.57226 -0.0684,-1.29883 -0.13672,-2.73438 0,-1.5039 -0.0684,-2.73437 -0.0684,-1.23047 -0.0684,-1.57227 -0.13672,-6.83594 -0.68359,-13.46679 -0.47852,-6.69922 -0.3418,-13.53516 0,-0.54688 0.13672,-0.61524 0.13672,-0.13671 0.3418,0 0.20507,0.0684 0.34179,0.20508 0.20508,0.13672 0.20508,0.13672 0.27344,-0.41015 0.3418,-0.68359 0.13672,-0.27344 0.88867,-0.0684 0.27344,0 0.27344,0.27344 0.47851,-0.41016 1.09375,-0.95704 0.68359,-0.54687 1.36718,-0.88867 0.6836,-0.41015 1.36719,-0.47851 0.75196,-0.0684 1.36719,0.41015 0.13672,-0.75195 0.41016,-0.88867 0.34179,-0.13672 0.20507,0.88867 l 1.36719,-1.36718 q 0.13672,0 0.20508,-0.0684 0.0684,0 0.0684,0 0.0684,-0.0684 0.13672,-0.0684 l 1.64062,0 q 0.27344,0.0684 0.3418,0.34179 0.13672,0.20508 0.13672,0.47852 0.0684,0.20508 0.13672,0.41016 0.0684,0.20507 0.27343,0.27343 0.61524,0.13672 1.23047,0 0.6836,-0.20507 1.29883,-0.27343 l 6.63086,-0.27344 q 0.54688,0 1.8457,0.13672 1.29883,0.0684 2.93946,0.20508 1.64062,0.13671 3.41797,0.34179 1.8457,0.13672 3.41796,0.41016 1.57227,0.20508 2.66602,0.47851 1.16211,0.27344 1.43555,0.54688 0.0684,0 0.0684,0.0684 0,0.0684 -0.0684,0.0684 -0.0684,0.0684 -0.13672,0.0684 -0.0684,0.0684 -0.13672,0.0684 -0.13672,0.0684 -0.41016,0.27343 -0.20507,0.13672 -0.34179,0.20508 -0.13672,0.27344 0.13672,0.47852 0.27343,0.13672 0.47851,0.27344 0.13672,0.0683 0.54688,0.20507 0.47851,0.13672 0.61523,0.20508 0.0684,0 0.0684,0.0684 0,0.0684 -0.0684,0.0684 0,0.13672 -0.27344,0.13672 0.27344,0.13672 0.13672,0.3418 -0.75195,0.61523 -1.57226,0.54687 -0.75196,-0.0684 -1.57227,0.3418 l -2.93945,0 q -1.29883,0.47851 -2.66602,0.27344 -1.36719,-0.27344 -2.73437,-0.13672 0.82031,0.34179 -0.0684,0.13672 -0.82032,-0.20508 -2.66602,-0.54688 -1.8457,-0.41016 -4.30664,-0.61523 -2.46094,-0.27344 -4.85351,0.0684 -0.3418,0.0683 -0.82032,0.20507 -0.47851,0.13672 -0.54687,0.27344 l -0.13672,0.27344 0,5.46875 -0.20508,0.20508 0,-1.09375 -0.0684,1.36718 q 0.20508,0 0.20508,0.0684 0,0.0684 -0.0684,0.20508 0,0.13672 -0.0684,0.3418 0,0.20508 0.13672,0.54687 l 0,-0.41015 q 0.41016,-0.0684 0.13672,0.41015 -0.20508,0.41016 -0.20508,0.47852 0,0.27344 0.13672,0.13672 0.0684,-0.0684 0.20508,-0.13672 l 0,0.88867 -0.20508,-0.27344 0,0.75196 0.13672,0 0,0.68359 -0.13672,-0.27344 0,1.02539 0.27344,0.20508 q -0.54688,0.0684 -0.20508,0.41016 0.3418,0.27344 0.20508,0.61523 l -0.27344,0.27344 q -0.13672,0.20508 0.0684,0.41016 0.20508,0.20507 0.3418,-0.0684 -0.27344,0.75195 -0.0684,1.57226 0.27343,0.82031 -0.0684,1.50391 -0.0684,0.13672 -0.13672,0.3418 0,0.20507 0,0.27343 0,0.0684 0.20508,0.41016 0.20507,0.27344 0.27343,0.3418 l 0,0.61523 q 0,0.13672 0,0.54688 0,0.34179 0.0684,0.75195 0.0684,0.41015 0.13672,0.75195 0.0684,0.27344 0.20508,0.27344 0.3418,0.0684 1.29883,0.13672 0.95703,0.0684 1.23047,0.0684 1.36718,0 1.8457,0 0.47852,0 0.68359,0 0.27344,0 0.75196,0 0.47851,-0.0684 1.8457,-0.13672 0.68359,0 0.82031,-0.0684 0.20508,-0.13672 0.27344,-0.20508 0.0684,-0.0684 0.20508,-0.13672 0.20508,-0.13672 0.88867,-0.13672 l 0.20508,0 q 0.0684,0.0684 0.13672,0.0684 0.0684,0.0684 0.13672,0.0684 l 0.13671,0 q 0.13672,0 0.54688,-0.0684 0.41016,-0.0684 0.47851,-0.0684 0.41016,-0.0684 1.09375,-0.0684 0.6836,0 0.6836,0.0684 l 0.3418,0.13672 4.44335,0 -0.27343,0.27344 q 0.54687,-0.13672 1.29883,0.0684 0.75195,0.20508 1.09375,0.68359 -0.3418,0.47852 -0.6836,0.61524 -0.27344,0.13672 -0.41015,0.27343 -0.13672,0.0684 0,0.20508 0.13671,0.13672 0.75195,0.54688 0.47851,0.34179 0.0684,0.54687 -0.41016,0.20508 -0.61524,0.3418 -1.8457,0.82031 -3.62304,0.95703 -1.70899,0.13672 -3.69141,0.41016 -1.02539,0.13672 -1.98242,0.34179 -0.88867,0.13672 -1.91406,0.27344 -0.54688,0.0684 -1.50391,0.20508 -0.95703,0.0684 -1.02539,0.0684 l -0.27344,0.13672 -3.75976,0.41015 q -0.13672,0 -0.61524,0.0684 -0.41015,0 -0.54687,0.0684 -0.13672,0.54688 -0.13672,1.29883 0,0.68359 0,1.50391 0.0684,0.75195 0.13672,1.57226 0.13672,0.75196 0.13672,1.29883 0,0.20508 0,0.95703 0.0684,0.75196 0.0684,1.64063 0,0.82031 0,1.64062 0.0684,0.75196 0.0684,0.95703 l 0,2.1875 q 0,0.13672 -0.0684,0.41016 -0.0684,0.27344 -0.0684,0.3418 -0.0684,0.34179 0.13671,0.34179 0.20508,-0.0684 1.09375,-0.27343 0.88868,-0.20508 2.66602,-0.47852 1.8457,-0.3418 5.05859,-0.54687 l 6.5625,0 q 0.75196,0.20507 1.29883,0.13671 0.54688,-0.0684 1.36719,0 3.41797,0.20508 6.5625,1.23047 0.41016,0.75196 0.47851,0.88867 0.0684,0.13672 -0.0684,0.13672 -0.0684,0 -0.3418,0 -0.27344,-0.0684 -0.54688,0.27344 -0.27343,0.41016 -0.27343,0.61524 0.0684,0.20507 0.13671,0.34179 0.13672,0.13672 0.20508,0.27344 0.0684,0.0684 -0.0684,0.27344 -0.20507,0.27343 -1.16211,0.54687 -0.88867,0.27344 -2.05078,0.54688 -1.09375,0.20508 -2.11914,0.34179 -1.02539,0.13672 -1.36719,0.0684 -0.20507,0.13672 0,0.20508 0.20508,0 0.3418,0.0684 0.20508,0 0.13672,0.13672 -0.0684,0.0684 -0.75195,0.3418 -0.0684,0 -0.0684,0.0684 0,0.0684 -0.0684,0.0684 l -2.8711,0 q -0.34179,0.34179 -1.09375,0.34179 -0.75195,0 -1.29882,-0.0684 0,0.27344 0.20507,0.3418 0.13672,0 0.41016,0.0684 0.3418,0.0684 0.47852,0.0684 l 0,0.13672 -0.88868,0 q -0.68359,-0.20508 -2.1875,-0.27344 -1.43554,-0.0684 -3.00781,-0.0684 -1.5039,0 -2.80273,0.13672 -1.29883,0.0684 -1.57227,0.27344 -0.34179,-0.0684 -0.75195,-0.27344 -0.3418,-0.27344 -0.61524,0.27344 0,-0.20508 -0.68359,-0.13672 -0.68359,0.0684 -1.50391,0.27344 -0.82031,0.13671 -1.57226,0.34179 -0.68359,0.20508 -0.82031,0.27344 -0.41016,0.13672 -0.75196,-0.0684 -0.34179,-0.20508 -0.75195,0.0684 -0.3418,0.20508 -0.54687,-0.0684 -0.13672,-0.27344 -0.20508,0.20508 l -2.25586,0 q -0.13672,0 -0.27344,0.27344 -0.0684,0.20507 -0.27344,0.47851 -0.20508,0.20508 -0.61523,0.3418 -0.3418,0.13672 -1.02539,0 -0.20508,-0.13672 -0.3418,0 l -0.41016,-0.95703 q -0.34179,0.61523 -0.88867,0.61523 l -0.75195,1.50391 -0.13672,0 q -0.0684,-0.0684 -0.13672,-0.27344 0,-0.20508 -0.0684,-0.3418 z m 6.9043,-1.91406 q -0.13672,0 -0.13672,0.13672 0,0.13672 0.13672,0.13672 0.13672,0 0.13672,-0.13672 0,-0.13672 -0.13672,-0.13672 z m -7.17773,-25.63476 q 0,-0.0684 -0.0684,-0.0684 -0.0684,0 -0.0684,0.0684 0,0.13671 0.0684,0.13671 0.0684,0 0.0684,-0.13671 z m 25.77148,-1.98243 q -0.13672,0 -0.13672,0.13672 0,0.13672 0.13672,0.13672 0.13672,0 0.13672,-0.13672 0,-0.13672 -0.13672,-0.13672 z m -26.04492,-0.41015 q -0.13672,0 -0.13672,0.13672 0,0.0684 0.13672,0.0684 0.0684,-0.0684 0,-0.20508 z m 0,-0.88867 q -0.13672,0 -0.13672,0.20507 0,0.13672 0.13672,0.13672 0.13672,0 0.13672,-0.13672 0,-0.20507 -0.13672,-0.20507 z m 0,-0.54688 q -0.13672,-0.0684 -0.13672,0.13672 0,0.20508 0.13672,0.13672 0.0684,-0.0684 0.0684,-0.13672 0,-0.13672 -0.0684,-0.13672 z m 1.43554,-1.8457 q 0.0684,0.0684 0.13672,0.13672 0.0684,0 0.13672,0.0684 l 0,-0.75196 q -0.20508,0.20508 -0.41015,0.13672 0,0.13672 0.0684,0.27344 0.0684,0.0684 0.0684,0.13672 z m 0.20508,-1.02539 0,-3.55469 q 0,-0.13672 -0.0684,-0.3418 -0.0684,-0.27344 -0.13672,-0.41015 -0.20507,0.13671 -0.27343,0.47851 0,0.27344 0,0.6836 0,0.41015 0,0.82031 0.0684,0.41015 0,0.68359 l 0,0.13672 q 0,0.13672 0,0.41016 0.0684,0.20507 0.0684,0.41015 0,0.27344 0.0684,0.54688 l 0.34179,0.13672 z m -1.8457,-0.88868 q -0.13672,0 -0.13672,0.13672 0,0.13672 0.13672,0.13672 0.13672,0 0.13672,-0.13672 0,-0.13672 -0.13672,-0.13672 z m 0.75195,0 q -0.13672,0 -0.13672,0.13672 0,0.13672 0.13672,0.13672 0.13672,0 0.13672,-0.13672 0,-0.13672 -0.13672,-0.13672 z m -0.88867,-0.61523 q 0,0.0684 0.0684,0.27344 0.0684,0.13672 0.0684,0.20508 0.0684,-0.13672 0.0684,-0.41016 0,-0.3418 -0.0684,-0.47852 0,-0.13671 -0.13672,-0.13671 l 0,0.54687 z m 0.88867,-0.68359 q -0.13672,0 -0.13672,0.13672 0,0.13671 0.13672,0.13671 0.13672,0 0.13672,-0.13671 0,-0.13672 -0.13672,-0.13672 z m -0.88867,-0.75196 q 0.20508,-0.0684 0.20508,-0.27343 0,-0.27344 -0.20508,-0.3418 l 0,0.61523 z m 0.88867,-0.20507 q -0.13672,0 -0.13672,0.20507 0,0.13672 0.13672,0.13672 0.13672,0 0.13672,-0.13672 0,-0.20507 -0.13672,-0.20507 z m 0.61524,-1.43555 q 0.20508,0.13672 0.27343,-0.0684 0.0684,-0.27344 0,-0.41016 0,-0.20508 -0.0684,-0.95703 0,-0.75195 -0.0684,-0.95703 l -0.13672,0.13672 0,2.25586 z m -0.75196,-0.61524 q -0.0684,-0.0684 -0.0684,0.13672 0,0.20508 0.0684,0.13672 0.0684,0 0.0684,-0.0684 0,-0.13672 -0.0684,-0.20508 z m 0.88868,-2.25586 q 0.0684,-0.88867 0,-1.77734 0,-0.88867 -0.13672,-1.77734 l -0.13672,0.27343 q -0.0684,0.0684 -0.0684,0.75196 0,0.68359 0.0684,1.02539 0,0.13672 0,0.41015 0,0.20508 0.0684,0.41016 0,0.27344 0.0684,0.54688 l 0.13672,0.13671 z m 10.32226,-3.28125 q -0.13672,-0.0683 -0.13672,0.3418 0,0.3418 0.13672,0.27344 0.0684,-0.0684 0.0684,-0.27344 0,-0.20508 -0.0684,-0.3418 z m -10.5957,-0.75195 0.13672,-0.13672 0,-1.5039 q 0,-0.0684 -0.0684,-0.41016 -0.0684,-0.3418 -0.0684,-0.47852 l 0,2.5293 z m 10.39062,-0.27344 q -0.13672,0 -0.13672,0.13672 0,0.13672 0.13672,0.13672 0.13672,0 0.13672,-0.13672 0,-0.13672 -0.13672,-0.13672 z m 0,-0.61523 q -0.0684,0 -0.0684,0.13672 0,0.0684 0.0684,0.0684 0.20508,-0.0684 0,-0.20508 z m -10.39062,-2.1875 q -0.0684,-0.0684 -0.0684,0.0684 0,0.0684 0.0684,0.0684 0.0684,0 0.0684,-0.0684 0,-0.0684 -0.0684,-0.0684 z m 0,-0.61523 q -0.13672,0 -0.13672,0.13671 0,0.13672 0.13672,0.13672 0.13672,0 0.13672,-0.13672 0,-0.13671 -0.13672,-0.13671 z"
         style="font-style:normal;font-variant:normal;font-weight:normal;font-stretch:normal;font-size:70px;font-family:'KG Life is Messy';-inkscape-font-specification:'KG Life is Messy'"
         id="path4143"
         inkscape:connector-curvature="0" />
      <path
         d="m 264.5759,475.19144 q -0.75196,-0.13672 -1.36719,-0.3418 -0.54688,-0.20508 -1.36719,-0.13672 -0.27344,-0.41016 -0.75195,-0.61523 -0.41016,-0.20508 -0.95703,-0.3418 -0.47852,-0.13672 -0.95703,-0.27344 -0.47852,-0.13672 -0.88868,-0.41015 0.0684,-2.39258 -0.0684,-4.7168 -0.0684,-2.39258 0.0684,-4.78516 0,-0.0684 0.0684,-0.20508 0.0684,-0.20507 0.0684,-0.27343 0,0 0.13672,-0.0684 0.0684,0 0.0684,-0.0684 l 0,-0.88867 0.13672,0.13672 q 0.27344,-0.54688 0.0684,-0.82032 -0.20508,-0.34179 -0.20508,-0.82031 0,-0.13672 0.0684,-0.3418 0.13672,-0.20507 0.20508,-0.41015 0.20508,-1.77735 0.20508,-3.55469 0,-1.77734 0.0684,-3.55469 0,-0.34179 0,-0.47851 0,-0.13672 0.13672,-0.41016 0.0684,0.13672 0.0684,0.82031 0.0684,0.61524 0.13672,0.82032 0,0.34179 -0.0684,0.47851 0,0.0684 0.20508,0.41016 0.41016,-0.6836 0.20508,-1.57227 -0.13672,-0.95703 0.13672,-1.70898 l 0,0.75195 q 0.20508,-0.41016 0.27344,-0.88867 0.0684,-0.54688 0.13672,-0.95703 0,0.0684 0,0.47851 0.0684,0.41016 0.13671,0.82032 0.0684,0.41015 0.0684,0.75195 0.0684,0.27344 0.20508,0.0684 l 0,-9.36524 q 0.54688,-0.61523 0.41016,-1.57226 -0.13672,-0.95703 -0.27344,-1.70899 0,-0.34179 -0.13672,-1.36718 -0.0684,-1.02539 -0.13672,-1.29883 -0.0684,-0.27344 -0.27343,-0.41016 -0.13672,-0.13672 0,-0.3418 0.13671,0.20508 0.20507,-0.13671 0.0684,-0.3418 0.0684,-0.88868 0,-0.54687 -0.0684,-1.02539 -0.0684,-0.54687 -0.0684,-0.68359 -0.27343,-1.09375 -0.47851,-2.11914 -0.20508,-1.02539 -0.13672,-2.1875 l 0.13672,0 q 0.13672,-0.13672 0,-0.27344 -0.13672,-0.13672 -0.27344,-0.13672 -0.3418,-2.1875 -0.54687,-4.51172 -0.20508,-2.39257 -0.0684,-4.58007 0.41015,-0.54688 0.88867,-0.75196 0.54687,-0.27343 0.88867,-0.75195 0.3418,-0.41016 0.3418,-0.27344 0,0.13672 0.41015,0 0.27344,-0.0684 0.47852,-0.41015 0.27344,-0.3418 0.47851,-0.54688 0.27344,-0.20508 0.47852,-0.0684 0.27344,0.13672 0.54688,1.02539 l 0.20507,0 0,-1.36719 q 0,-0.13671 0.20508,-0.13671 0.0684,0 0.27344,0.0684 0.27344,0.0683 0.3418,0.0683 0.0684,0 0.27343,-0.20507 0.20508,-0.20508 0.3418,-0.20508 1.09375,-0.54688 1.8457,-0.41016 0.82032,0.0684 1.84571,0.20508 0.54687,3.28125 0.61523,6.69922 0.13672,3.41797 0.27344,6.69922 0,0.27344 0.0684,1.02539 0.0684,0.75195 0.0684,0.95703 0.20508,1.36719 0.27343,2.73437 0.0684,1.36719 0.20508,2.73438 0.13672,1.16211 0.20508,1.8457 0.0684,0.6836 -0.0684,1.77735 0,0.20507 0.27344,0.27343 l 0,2.80274 q 0.27344,0.27344 0.27344,1.09375 0.0684,0.75195 0.0684,1.70898 0,0.95703 0,1.84571 0.0684,0.82031 0.27343,1.16211 l -0.0684,11.96289 0,0.75195 0,3.69141 -0.20507,0.13671 q 0.0684,0.20508 0.13671,0.95704 0.13672,0.75195 0.13672,1.02539 0.0684,0.54687 -0.13672,0.88867 -0.13671,0.34179 0.61524,0.68359 0.3418,0.20508 0.88867,0.3418 0.54688,0.0684 0.88867,0 5.46875,-0.54688 10.39063,-0.82031 4.99023,-0.3418 10.5957,-0.20508 0.13672,0 0.27344,0.0684 0.20508,0.0684 0.3418,0.20508 0.68359,0.0683 1.29882,-0.0684 0.6836,-0.13672 1.36719,-0.0684 -0.13672,0.34179 0.13672,0.54687 0.13672,0 0.41016,0.0684 0.34179,0.0684 0.47851,0.13672 0.61524,0.20508 0.82031,0.3418 0.20508,0.13672 0.20508,0.34179 0,0.13672 -0.20508,0.41016 -0.13671,0.27344 -0.34179,0.68359 l -1.36719,0.41016 q 0,0.3418 -0.41016,0.47852 0.0684,0.13671 0.20508,0.20507 0.20508,0.0684 0.3418,0.0684 -0.13672,0.47852 -0.61524,0.54688 -0.41015,0.0684 -0.88867,0.20508 -1.29883,0.34179 -2.66601,0.27343 -1.29883,-0.0684 -2.66602,0.20508 -1.02539,0.20508 -2.25586,0.3418 -1.23047,0.0684 -3.21289,0.20508 -1.98242,0.13672 -4.99023,0.34179 -3.00782,0.13672 -7.58789,0.41016 l -0.13672,0 q -0.27344,0 -1.29883,0.13672 -0.95703,0.0684 -2.11914,0.20508 -1.09375,0.0684 -2.05078,0.20507 -0.95703,0.0684 -1.23047,0.0684 l -0.13672,0 q -0.3418,-0.0684 -1.09375,-0.13671 -0.68359,-0.13672 -0.82031,-0.13672 z m -5.94727,-7.58789 q -0.13672,0 -0.13672,0.13671 0,0.13672 0.13672,0.13672 0.13672,0 0.13672,-0.13672 0,-0.13671 -0.13672,-0.13671 z m 2.1875,-10.9375 q 0,0 -0.0684,0.13671 0,0.13672 0,0.3418 0,0.20508 0,0.41016 0.0684,0.13672 0.0684,0.0684 0.13672,-0.13672 0.13672,-0.47852 0,-0.3418 -0.13672,-0.47851 z m 0,-0.88868 q -0.0684,0 -0.0684,0.13672 0,0.0684 0.0684,0.0684 0.20508,-0.0684 0,-0.20508 z m -0.13672,-0.41015 0.13672,0 0,-0.47852 q 0,0.0684 -0.0684,0.20508 -0.0684,0.0684 -0.0684,0.13672 l 0,0.13672 z m 0.13672,-2.66602 q 0,-0.0684 -0.0684,0.20508 0,0.27344 0,0.68359 0,0.41016 0,0.75196 0.0684,0.27343 0.0684,0.13672 0.13672,-0.20508 0.13672,-0.88868 0,-0.68359 -0.13672,-0.88867 z m 2.11914,-14.15039 q -0.13672,-0.0684 -0.13672,0.0684 0,0.0684 0.13672,0.0684 0.0684,0 0.0684,-0.0684 0,-0.0684 -0.0684,-0.0684 z m -2.87109,-9.0918 q -0.0684,0 -0.0684,0.0684 0,0.0684 0.0684,0.0684 0.13672,0 0.13672,-0.0684 0,-0.0684 -0.13672,-0.0684 z m -0.13672,-1.5039 q 0,0.0684 0.0684,0.27344 0.0684,0.13671 0.0684,0.20507 l 0,-0.61523 -0.13672,0 0,0.13672 z m 0,-0.61524 q -0.0684,0 -0.0684,0.13672 0,0.0684 0.0684,0 0.13672,0 0,-0.13672 z m 2.5293,-0.27343 q -0.0684,0 -0.0684,0.0684 0,0.0684 0.0684,0.0684 0.0684,0 0.0684,-0.0684 0,-0.0684 -0.0684,-0.0684 z m -2.66602,-1.16211 q 0,0.0684 0.0684,0.13672 0,0.0684 0.0684,0.13671 l 0,-0.88867 q -0.13672,0.0684 -0.13672,0.27344 0,0.20508 0,0.3418 z m -0.13672,-1.98242 0.13672,0 q 0.13672,-0.88868 -0.13672,-1.50391 l 0,1.50391 z m -0.13672,-2.05079 q 0,0.27344 0.13672,0.27344 0,-0.27344 0,-0.68359 0,-0.47852 -0.13672,-0.82031 -0.0684,0.13671 -0.0684,0.61523 0,0.47852 0.0684,0.61523 z"
         style="font-style:normal;font-variant:normal;font-weight:normal;font-stretch:normal;font-size:70px;font-family:'KG Life is Messy';-inkscape-font-specification:'KG Life is Messy'"
         id="path4145"
         inkscape:connector-curvature="0" />
      <path
         d="m 309.55637,475.19144 q -0.75196,-0.13672 -1.36719,-0.3418 -0.54688,-0.20508 -1.36719,-0.13672 -0.27344,-0.41016 -0.75195,-0.61523 -0.41016,-0.20508 -0.95703,-0.3418 -0.47852,-0.13672 -0.95703,-0.27344 -0.47852,-0.13672 -0.88868,-0.41015 0.0684,-2.39258 -0.0684,-4.7168 -0.0684,-2.39258 0.0684,-4.78516 0,-0.0684 0.0684,-0.20508 0.0684,-0.20507 0.0684,-0.27343 0,0 0.13672,-0.0684 0.0684,0 0.0684,-0.0684 l 0,-0.88867 0.13672,0.13672 q 0.27344,-0.54688 0.0684,-0.82032 -0.20508,-0.34179 -0.20508,-0.82031 0,-0.13672 0.0684,-0.3418 0.13672,-0.20507 0.20508,-0.41015 0.20508,-1.77735 0.20508,-3.55469 0,-1.77734 0.0684,-3.55469 0,-0.34179 0,-0.47851 0,-0.13672 0.13671,-0.41016 0.0684,0.13672 0.0684,0.82031 0.0684,0.61524 0.13672,0.82032 0,0.34179 -0.0684,0.47851 0,0.0684 0.20508,0.41016 0.41016,-0.6836 0.20508,-1.57227 -0.13672,-0.95703 0.13672,-1.70898 l 0,0.75195 q 0.20508,-0.41016 0.27344,-0.88867 0.0684,-0.54688 0.13671,-0.95703 0,0.0684 0,0.47851 0.0684,0.41016 0.13672,0.82032 0.0684,0.41015 0.0684,0.75195 0.0684,0.27344 0.20508,0.0684 l 0,-9.36524 q 0.54688,-0.61523 0.41016,-1.57226 -0.13672,-0.95703 -0.27344,-1.70899 0,-0.34179 -0.13672,-1.36718 -0.0684,-1.02539 -0.13672,-1.29883 -0.0684,-0.27344 -0.27344,-0.41016 -0.13671,-0.13672 0,-0.3418 0.13672,0.20508 0.20508,-0.13671 0.0684,-0.3418 0.0684,-0.88868 0,-0.54687 -0.0684,-1.02539 -0.0684,-0.54687 -0.0684,-0.68359 -0.27343,-1.09375 -0.47851,-2.11914 -0.20508,-1.02539 -0.13672,-2.1875 l 0.13672,0 q 0.13672,-0.13672 0,-0.27344 -0.13672,-0.13672 -0.27344,-0.13672 -0.3418,-2.1875 -0.54688,-4.51172 -0.20507,-2.39257 -0.0684,-4.58007 0.41015,-0.54688 0.88867,-0.75196 0.54687,-0.27343 0.88867,-0.75195 0.3418,-0.41016 0.3418,-0.27344 0,0.13672 0.41015,0 0.27344,-0.0684 0.47852,-0.41015 0.27344,-0.3418 0.47851,-0.54688 0.27344,-0.20508 0.47852,-0.0684 0.27344,0.13672 0.54687,1.02539 l 0.20508,0 0,-1.36719 q 0,-0.13671 0.20508,-0.13671 0.0684,0 0.27344,0.0684 0.27344,0.0683 0.34179,0.0683 0.0684,0 0.27344,-0.20507 0.20508,-0.20508 0.3418,-0.20508 1.09375,-0.54688 1.8457,-0.41016 0.82031,0.0684 1.84571,0.20508 0.54687,3.28125 0.61523,6.69922 0.13672,3.41797 0.27344,6.69922 0,0.27344 0.0684,1.02539 0.0684,0.75195 0.0684,0.95703 0.20507,1.36719 0.27343,2.73437 0.0684,1.36719 0.20508,2.73438 0.13672,1.16211 0.20508,1.8457 0.0684,0.6836 -0.0684,1.77735 0,0.20507 0.27344,0.27343 l 0,2.80274 q 0.27344,0.27344 0.27344,1.09375 0.0684,0.75195 0.0684,1.70898 0,0.95703 0,1.84571 0.0684,0.82031 0.27344,1.16211 l -0.0684,11.96289 0,0.75195 0,3.69141 -0.20508,0.13671 q 0.0684,0.20508 0.13672,0.95704 0.13672,0.75195 0.13672,1.02539 0.0684,0.54687 -0.13672,0.88867 -0.13672,0.34179 0.61524,0.68359 0.34179,0.20508 0.88867,0.3418 0.54687,0.0684 0.88867,0 5.46875,-0.54688 10.39063,-0.82031 4.99023,-0.3418 10.5957,-0.20508 0.13672,0 0.27344,0.0684 0.20508,0.0684 0.34179,0.20508 0.6836,0.0683 1.29883,-0.0684 0.6836,-0.13672 1.36719,-0.0684 -0.13672,0.34179 0.13672,0.54687 0.13672,0 0.41015,0.0684 0.3418,0.0684 0.47852,0.13672 0.61523,0.20508 0.82031,0.3418 0.20508,0.13672 0.20508,0.34179 0,0.13672 -0.20508,0.41016 -0.13672,0.27344 -0.34179,0.68359 l -1.36719,0.41016 q 0,0.3418 -0.41016,0.47852 0.0684,0.13671 0.20508,0.20507 0.20508,0.0684 0.3418,0.0684 -0.13672,0.47852 -0.61524,0.54688 -0.41015,0.0684 -0.88867,0.20508 -1.29883,0.34179 -2.66601,0.27343 -1.29883,-0.0684 -2.66602,0.20508 -1.02539,0.20508 -2.25586,0.3418 -1.23047,0.0684 -3.21289,0.20508 -1.98242,0.13672 -4.99023,0.34179 -3.00782,0.13672 -7.5879,0.41016 l -0.13671,0 q -0.27344,0 -1.29883,0.13672 -0.95703,0.0684 -2.11914,0.20508 -1.09375,0.0684 -2.05078,0.20507 -0.95704,0.0684 -1.23047,0.0684 l -0.13672,0 q -0.3418,-0.0684 -1.09375,-0.13671 -0.6836,-0.13672 -0.82031,-0.13672 z m -5.94727,-7.58789 q -0.13672,0 -0.13672,0.13671 0,0.13672 0.13672,0.13672 0.13672,0 0.13672,-0.13672 0,-0.13671 -0.13672,-0.13671 z m 2.1875,-10.9375 q 0,0 -0.0684,0.13671 0,0.13672 0,0.3418 0,0.20508 0,0.41016 0.0684,0.13672 0.0684,0.0684 0.13672,-0.13672 0.13672,-0.47852 0,-0.3418 -0.13672,-0.47851 z m 0,-0.88868 q -0.0684,0 -0.0684,0.13672 0,0.0684 0.0684,0.0684 0.20508,-0.0684 0,-0.20508 z m -0.13672,-0.41015 0.13672,0 0,-0.47852 q 0,0.0684 -0.0684,0.20508 -0.0684,0.0684 -0.0684,0.13672 l 0,0.13672 z m 0.13672,-2.66602 q 0,-0.0684 -0.0684,0.20508 0,0.27344 0,0.68359 0,0.41016 0,0.75196 0.0684,0.27343 0.0684,0.13672 0.13672,-0.20508 0.13672,-0.88868 0,-0.68359 -0.13672,-0.88867 z m 2.11914,-14.15039 q -0.13672,-0.0684 -0.13672,0.0684 0,0.0684 0.13672,0.0684 0.0684,0 0.0684,-0.0684 0,-0.0684 -0.0684,-0.0684 z m -2.87109,-9.0918 q -0.0684,0 -0.0684,0.0684 0,0.0684 0.0684,0.0684 0.13672,0 0.13672,-0.0684 0,-0.0684 -0.13672,-0.0684 z m -0.13672,-1.5039 q 0,0.0684 0.0684,0.27344 0.0684,0.13671 0.0684,0.20507 l 0,-0.61523 -0.13672,0 0,0.13672 z m 0,-0.61524 q -0.0684,0 -0.0684,0.13672 0,0.0684 0.0684,0 0.13672,0 0,-0.13672 z m 2.5293,-0.27343 q -0.0684,0 -0.0684,0.0684 0,0.0684 0.0684,0.0684 0.0684,0 0.0684,-0.0684 0,-0.0684 -0.0684,-0.0684 z m -2.66602,-1.16211 q 0,0.0684 0.0684,0.13672 0,0.0684 0.0684,0.13671 l 0,-0.88867 q -0.13672,0.0684 -0.13672,0.27344 0,0.20508 0,0.3418 z m -0.13672,-1.98242 0.13672,0 q 0.13672,-0.88868 -0.13672,-1.50391 l 0,1.50391 z m -0.13672,-2.05079 q 0,0.27344 0.13672,0.27344 0,-0.27344 0,-0.68359 0,-0.47852 -0.13672,-0.82031 -0.0684,0.13671 -0.0684,0.61523 0,0.47852 0.0684,0.61523 z"
         style="font-style:normal;font-variant:normal;font-weight:normal;font-stretch:normal;font-size:70px;font-family:'KG Life is Messy';-inkscape-font-specification:'KG Life is Messy'"
         id="path4147"
         inkscape:connector-curvature="0" />
      <path
         d="m 369.43918,473.27737 q -0.13672,-0.0684 -0.54688,-0.0684 -0.34179,0 -0.88867,0.0684 -0.47851,0.0684 -0.95703,0.13672 -0.47852,0 -0.68359,0 -0.13672,0 -0.54688,0 -0.41015,-0.0684 -0.88867,-0.13672 -0.47852,-0.0684 -0.95703,-0.13671 -0.41016,-0.0684 -0.47852,-0.0684 l -2.80273,0 q -0.20508,0 -0.47852,-0.27344 0.27344,-0.0684 0.47852,-0.27344 -0.41016,0 -1.02539,0 -0.54688,0 -0.88867,-0.13672 -0.54688,-0.13672 -0.61524,-0.34179 0,-0.20508 -0.61523,-0.27344 0.13672,-0.47852 -0.47852,-0.61524 -0.61523,-0.13672 -0.88867,-0.27343 0.13672,-0.20508 -0.13672,-0.3418 -0.0684,0 -0.27344,-0.0684 -0.20507,-0.13672 -0.27343,-0.20508 -0.13672,0.3418 -0.47852,0.13672 -0.13672,-0.13672 -0.75195,-0.68359 -0.61524,-0.61524 -0.75196,-0.82032 -0.34179,-0.34179 -0.82031,-0.95703 -0.47851,-0.61523 -0.95703,-1.29883 -0.41016,-0.68359 -0.75195,-1.36718 -0.27344,-0.6836 -0.13672,-1.23047 -1.16211,-1.8457 -1.77735,-4.10156 -0.61523,-2.25586 -0.47851,-4.44336 l -0.13672,0 q -0.13672,-0.75196 0,-0.95703 0.20508,-0.27344 -0.13672,-1.09375 l 0,-3.14454 q 0.61524,-0.34179 0.41016,-0.82031 -0.20508,-0.54687 -0.13672,-0.95703 l 0.20508,0 q 0.13672,0 0.13672,-0.68359 0,-0.75196 0,-0.82032 l -0.3418,0.13672 q 0,-0.20508 0.20508,-0.41015 l 0.13672,0 0.13671,-0.13672 q 0,-0.13672 -0.0684,-0.61524 0,-0.54687 0.20507,-0.75195 l 1.23047,-4.16992 q 0,-0.13672 -0.20508,-0.27344 0.27344,-0.13672 0.54688,-1.02539 0.3418,-0.95703 0.20508,-1.23047 l 0,-0.13672 q 0.54687,-0.75195 0.75195,-1.57226 0.27344,-0.88867 0.61523,-1.70899 0.0684,-0.13672 0.41016,-0.54687 0.41016,-0.47852 0,-0.6836 1.09375,-1.29882 1.8457,-3.00781 0.75196,-1.70898 1.57227,-3.21289 1.09375,-1.8457 2.46094,-3.41797 1.36718,-1.64062 2.93945,-3.14453 0.3418,-0.0684 0.3418,-0.27344 0,-0.20507 0.27343,-0.34179 0.6836,-0.3418 1.64063,-0.82032 0.95703,-0.47851 1.77734,-0.61523 0.13672,-0.0684 0.41016,-0.0684 0.3418,0 0.47852,0.0684 0.0684,0 0.27343,0.20508 0.20508,0.20508 0.3418,0.20508 0.20508,0.0684 0.75195,0.0684 0.61524,-0.0684 1.23047,-0.20508 0.61524,-0.20508 1.02539,-0.41016 0.47852,-0.27344 0.41016,-0.61523 l 0.88867,0 0.13672,-0.13672 q 0.0684,-0.0684 0.20508,-0.13672 0.13672,-0.13672 0.20508,-0.20508 -0.3418,0.13672 -0.27344,0.0684 0.0684,-0.13672 -0.27344,-0.20508 l -0.75195,0 q -0.47852,0.0684 -0.75196,-0.0684 -0.20507,-0.20508 0.41016,-0.54687 0.20508,-0.0684 0.75195,-0.3418 0.61524,-0.27344 0.75196,-0.41016 0.34179,0.3418 0.13672,0.3418 -0.13672,-0.0684 0,0.27344 0.13671,0.3418 0.75195,0.41016 0.61523,0.0683 0.88867,-0.13672 -0.20508,-0.13672 -0.47852,-0.20508 -0.27343,-0.13672 -0.54687,-0.20508 0.27344,-0.27344 0.13672,-0.61523 0.68359,0.61523 1.02539,0.75195 0.41016,0.0684 0.61523,0 0.27344,-0.13672 0.47852,-0.27344 0.27344,-0.20508 0.75195,-0.13672 1.36719,0.13672 2.66602,0.61524 1.36719,0.41015 2.52929,1.16211 0.13672,-0.0684 0.13672,-0.27344 0.0684,-0.20508 0,-0.3418 0.13672,0.27344 0.41016,0.3418 0.27344,0.0684 0.47852,-0.0684 0.13671,0.13672 0.47851,0.54687 0.41016,0.41016 0.54688,0.54688 0.27343,0.20508 0.47851,0.13672 0.27344,-0.0684 0.61524,0 0.27343,0.0684 0.27343,0.3418 0.0684,0.27343 0.75196,0.41015 0.34179,0.0684 0.54687,0.0684 0.20508,0 0.47852,0.3418 l -0.41016,0.47851 0.54688,0.54688 q 0.13671,0.13672 0.41015,0 0.3418,-0.20508 0.47852,-0.13672 0.41015,0.27344 0.75195,0.61523 0.41016,0.3418 0.61524,0.75196 l -0.13672,0 -1.36719,-0.88867 -0.13672,0 q 0.54688,0.82031 1.29883,1.5039 0.82031,0.6836 1.36719,1.43555 0.0684,0.0684 0.13671,0.27344 0.13672,0.20507 0.20508,0.20507 0.0684,0.0684 0.3418,0.13672 0.3418,0.0684 0.54687,0.20508 0.27344,0.13672 0.41016,0.3418 0.20508,0.20508 0,0.47851 0.13672,-0.0684 0.47852,0.41016 0.34179,0.47852 0.75195,1.16211 0.41016,0.61523 0.68359,1.23047 0.3418,0.61523 0.3418,0.82031 0.0684,0.54688 0,0.75195 -0.0684,0.13672 0.13672,0.54688 0.20508,0.3418 0.47851,0 0,0 0.13672,0.47851 l 0.13672,0.41016 0.27344,-0.13672 q -0.0684,0.27344 0.0684,0.47852 0.13672,0.13672 0.13672,0.41015 l -0.20508,0 0,0.47852 -0.20508,0 0.82031,2.1875 q 0.0684,0.20508 0.47852,0.20508 0.0684,-0.3418 -0.0684,-0.61524 -0.0684,-0.34179 -0.20508,-0.61523 -0.13672,-0.3418 -0.27344,-0.61524 -0.13671,-0.34179 -0.0684,-0.68359 0.0684,0 0.20507,0.3418 0.20508,0.27343 0.3418,0.61523 0.20508,0.3418 0.3418,0.6836 0.13672,0.34179 0.27343,0.41015 l 0.13672,0.27344 q 0.0684,0.20508 -0.13672,0.20508 0.0684,0.13672 0.13672,0.47851 0.13672,0.27344 0.20508,0.41016 0.88867,2.1875 1.23047,4.85351 0.3418,2.59766 0.54688,4.92188 0.13671,1.50391 -0.20508,2.93945 -0.27344,1.43555 -0.13672,2.8711 0.13672,-0.20508 0.13672,-0.3418 0.0684,-0.13672 0.20508,-0.3418 0.0684,0.20508 0,0.88867 -0.0684,0.61524 -0.61524,0.41016 -0.3418,1.98242 -1.02539,3.69141 -0.68359,1.64062 -1.64062,3.48633 -0.13672,0.0683 -0.47852,0.54687 -0.27344,0.41016 -0.61523,0.95703 -0.27344,0.47852 -0.54688,0.95703 -0.27344,0.41016 -0.47852,0.61524 -0.0684,0.13672 -0.47851,0.61523 -0.3418,0.41016 -0.75195,0.95703 -0.41016,0.47852 -0.82032,0.95703 -0.41015,0.41016 -0.47851,0.47852 -0.13672,0.20508 -0.47852,0.54687 -0.34179,0.3418 -0.41015,0.3418 l -0.41016,0 -0.41016,0.27344 q -0.13672,0.13672 -0.34179,0.27344 -0.13672,0.13672 -0.27344,0.20507 -0.41016,0.27344 0,0.47852 -0.20508,0.13672 -0.68359,0.27344 -0.47852,0.0684 -0.54688,0.27344 0,0.0683 0,0.27343 0.0684,0.13672 0,0.20508 -0.13672,0.13672 -0.3418,0.27344 -0.20507,0.0684 -0.27343,0 l -0.13672,-0.13672 q -0.3418,0.47852 -1.02539,0.88867 -0.6836,0.41016 -1.50391,0.75195 -0.82031,0.3418 -1.64062,0.6836 -0.75196,0.27344 -1.29883,0.47851 -0.41016,0.20508 -0.47852,0.0684 -0.0684,-0.20507 -0.27344,-0.0684 -0.34179,0.20508 -0.68359,0.41016 -0.3418,0.20508 -0.68359,0.3418 -1.98243,0.47851 -3.75977,0.54687 -1.70898,0.0684 -3.69141,-0.0684 -0.47851,-0.0684 -0.61523,0 -0.13672,0 -0.20508,0.0684 -0.0684,0 -0.20508,0 -0.0684,0 -0.47851,-0.20508 z m 3.89648,-0.47851 q 0.20508,0.27344 0.61524,0.3418 0.41015,0.0683 0.88867,0.0683 0.47851,-0.0683 0.88867,-0.27343 0.41016,-0.20508 0.61524,-0.41016 -0.47852,-0.0684 -1.09375,0.27344 l -1.91407,0 z m -11.89453,0 0.13672,0 -0.13672,-0.13672 0,0.13672 z m -0.61523,-0.27344 q -0.13672,0 -0.13672,0.13672 0,0.13672 0.13672,0.13672 0.13672,0 0.13672,-0.13672 0,-0.13672 -0.13672,-0.13672 z m 15.92773,0 q 0,-0.13672 -0.0684,-0.13672 -0.0684,0 -0.0684,0.13672 0,0.0684 0.0684,0.0684 0.0684,0 0.0684,-0.0684 z m 0.47852,-0.13672 q 0,-0.13672 -0.13672,-0.13672 -0.0684,0 -0.0684,0.13672 0.0684,0.13672 0.20508,0 z m 0.41015,-0.34179 q -0.13672,0 -0.13672,0.20507 0,0.13672 0.13672,0.13672 0.13672,0 0.13672,-0.13672 0,-0.20507 -0.13672,-0.20507 z m 1.23047,-0.27344 q -0.13672,0 -0.13672,0.13672 0,0.13672 0.13672,0.13672 0.13672,0 0.13672,-0.13672 0,-0.13672 -0.13672,-0.13672 z m -20.09765,-0.13672 q -0.13672,0 -0.13672,0.13672 0,0.13672 0.13672,0.13672 0.13671,0 0.13671,-0.13672 0,-0.13672 -0.13671,-0.13672 z m -3.48633,-2.11914 q 0,-0.0684 -0.13672,0.0684 -0.0684,0.0684 0,0.0684 0.13672,0.0684 0.13672,0 0.0684,-0.0684 0,-0.13672 z m 0.61523,-1.16211 q -0.13672,0 -0.13672,0.13672 0,0.13672 0.13672,0.13672 0.13672,0 0.13672,-0.13672 0,-0.13672 -0.13672,-0.13672 z m 11.89453,-0.75195 q 0.54688,0.54687 1.77735,0.20507 1.23047,-0.34179 2.59765,-0.95703 1.43555,-0.68359 2.66602,-1.43554 1.29883,-0.82032 1.91406,-1.23047 0.3418,-0.27344 0.6836,-0.6836 0.41015,-0.41015 0.82031,-0.54687 l 2.66601,-2.66602 q 0,0 0.0684,-0.13672 0,-0.0684 0.0684,-0.13671 0.0684,-0.13672 0.3418,-0.54688 0.3418,-0.47852 0.61523,-0.95703 0.3418,-0.47852 0.61524,-0.88867 0.34179,-0.47852 0.41015,-0.61524 1.64063,-2.59765 2.25586,-5.74218 0.6836,-3.14454 0.54688,-6.15235 -0.0684,-0.95703 -0.27344,-1.77734 -0.13672,-0.82031 0,-1.77735 0.13672,0 0.13672,-0.41015 l 0,-0.3418 -0.3418,0 0,-1.09375 q -0.27343,0 -0.13672,-0.20508 0.0684,-0.0684 0.13672,-0.20508 l -0.27343,0 q -0.0684,-0.0683 -0.0684,-0.20507 -0.0684,-0.13672 -0.0684,-0.41016 -0.0684,-0.27344 0.13672,-0.27344 0.20507,0 0.13671,-0.34179 -0.0684,-0.6836 -0.20507,-1.16211 -0.13672,-0.47852 -0.3418,-1.16211 -0.13672,0.54687 0,1.02539 0.20508,0.47851 0.13672,1.02539 -0.0684,-0.13672 -0.27344,-0.6836 -0.20508,-0.54687 -0.41016,-1.1621 -0.13671,-0.61524 -0.20507,-1.0254 0,-0.41015 0.27343,-0.27343 0.13672,-0.20508 -0.13672,-0.20508 -0.27343,-0.0684 -0.27343,-0.20508 -0.0684,-0.0684 -0.0684,-0.27344 0.0684,-0.27343 0.0684,-0.34179 -0.13672,-0.27344 -0.41016,-0.20508 -0.20508,0.0684 -0.0684,-0.41016 l 0.27344,0.20508 q 0.0684,-0.27344 0,-0.3418 -0.0684,-0.13672 -0.13672,-0.41015 0,-0.20508 -0.13672,-0.75196 -0.13672,-0.61523 -0.13672,-0.75195 -0.13672,0.13672 -0.41015,-0.20508 -0.20508,-0.41015 0.0684,-0.54687 0.82031,0.61523 1.09375,1.8457 0.34179,1.16211 0.75195,2.05078 -0.13672,0.20508 0.0684,0.47852 0.27344,0.20508 0.20508,0.54687 l 0.27343,-0.13672 q -0.0684,0.3418 0.0684,1.36719 0.13672,0.95703 0.27344,1.29883 0.20508,0.95703 0.41016,1.98242 0.20508,1.02539 0.34179,2.05078 0,0.27344 0.13672,0.54688 0.20508,0.20508 0.13672,0.47851 0,0.0684 -0.0684,0.27344 -0.0684,0.13672 -0.0684,0.20508 0,0.54687 0.13672,1.09375 0.13672,0.54687 0.13672,1.09375 0,1.77734 -0.47852,3.75976 -0.41015,1.98243 -0.88867,3.69141 -0.0684,0.27344 -0.13672,0.41016 -0.0684,0.0684 0,0.34179 1.09375,-1.91406 1.50391,-4.10156 0.41016,-2.25586 0.41016,-4.51172 0,-2.32422 -0.3418,-4.58008 -0.27344,-2.32421 -0.68359,-4.375 -0.0684,-0.27343 -0.27344,-0.68359 -0.13672,-0.41016 -0.27344,-0.82031 -0.13672,-0.47852 -0.27344,-0.88867 -0.13672,-0.41016 -0.0684,-0.61524 -0.34179,0.20508 -0.27343,-0.34179 0.0684,-0.54688 0.13672,-0.6836 0.0684,0.13672 0.20507,0.3418 0.13672,0.13672 0.27344,0.27344 0.0684,-0.3418 -0.27344,-0.82032 -0.27343,-0.54687 -0.34179,-0.68359 l -0.13672,0.27344 q -0.75196,-0.27344 -0.47852,-1.02539 l 0.3418,0.34179 q 0,-0.34179 -0.0684,-0.82031 -0.0684,-0.47851 -0.41016,-0.68359 l 0,0.75195 q -0.34179,0 -0.61523,-0.47852 -0.27344,-0.54687 -0.13672,-0.88867 l 0.13672,0 q 0.0684,0.0684 0.20508,0.20508 0.20508,0.13672 0.27343,0.27344 -0.0684,-0.13672 -0.0684,-0.3418 0,-0.20508 0.0684,-0.27344 0,0 0.13672,-0.0684 0.0684,0 0.13672,-0.0683 0.27344,-0.27344 0.13672,-0.61524 -0.0684,-0.41016 -0.27344,-0.75195 -0.20507,-0.3418 -0.34179,-0.61524 -0.0684,-0.34179 0.20507,-0.41015 l -0.0684,-0.0684 q -0.0684,0 -0.0684,-0.0684 -0.54688,-0.20508 -0.54688,-0.54688 0,-0.34179 -0.3418,-0.54687 -0.27343,-0.13672 -0.41015,0.20508 -0.0684,0.34179 -0.3418,0.41015 l 0.13672,0.27344 0.27344,-0.27344 0.13672,0 q 0.47851,0.41016 0.0684,0.47852 -0.3418,0 -0.3418,0.27344 0,0.54687 0.41015,1.09375 0.47852,0.47851 0.3418,1.02539 -0.27344,-0.20508 -0.47851,-0.54688 -0.13672,-0.41015 -0.27344,-0.68359 -0.13672,-0.27344 -0.41016,-0.6836 -0.27344,-0.47851 -0.54687,-0.88867 -0.27344,-0.47851 -0.47852,-0.82031 -0.20508,-0.3418 -0.20508,-0.41016 0.47852,-0.13672 0.75196,0.27344 l 0,-0.27344 -0.88868,-1.09375 -0.13671,0 q -0.13672,0.27344 0.0684,0.41016 0.20507,0.0684 0.0684,0.20508 -0.27343,0.20508 -0.61523,-0.13672 -0.27344,-0.41016 -0.27344,-0.47852 l 0,0.47852 q 0.13672,0.13672 0.47852,0.68359 0.3418,0.47852 0.68359,1.09375 0.3418,0.61524 0.54688,1.16211 0.27343,0.54688 0.20508,0.75196 -0.13672,0.13671 -0.27344,0.0683 -0.0684,-0.0683 -0.13672,-0.20507 -0.0684,-0.13672 -0.13672,-0.27344 0,-0.20508 -0.0684,-0.27344 -0.0684,-0.0684 -0.27344,-0.3418 -0.20507,-0.34179 -0.47851,-0.61523 -0.20508,-0.3418 -0.41016,-0.61523 -0.20508,-0.3418 -0.27344,-0.41016 -0.13671,0 -0.13671,-0.27344 -0.41016,0.27344 -0.75196,0.13672 0,-0.27344 -0.0684,-0.54687 0,-0.3418 -0.13672,-0.61524 -0.13671,0.0684 -0.20507,0.27344 0,0.13672 -0.0684,0.27344 -0.27344,0 -0.6836,-0.27344 -0.41015,-0.3418 -0.47851,-0.27344 0.0684,-0.3418 0,-0.27344 -0.0684,0 -0.20508,-0.34179 -0.0684,-0.47852 0.20508,-0.6836 0.27343,-0.20507 -0.20508,-0.54687 -0.13672,0.13672 -0.27344,0.3418 -0.0684,0.13671 0,0.27343 -0.3418,0.13672 -0.41015,-0.0684 0,-0.20507 -0.3418,-0.0684 -0.27344,0.20508 -0.61524,0.82032 -0.34179,0.61523 -0.68359,0.82031 -0.68359,0.3418 -1.23047,0.68359 -0.47851,0.27344 -1.02539,0.82032 -0.3418,0.34179 -0.95703,1.09375 -0.61523,0.75195 -1.16211,1.09375 0.20508,0.13671 0.13672,0.34179 0,0.20508 -0.20508,0.41016 -0.13672,0.20508 -0.3418,0.41015 -0.20507,0.13672 -0.27343,0.20508 -0.0684,0.0684 -0.27344,0.47852 -0.13672,0.3418 -0.20508,0.41015 -0.0684,0.0684 -0.3418,0.20508 -0.20507,0.0684 -0.27343,0.0684 0,0.0684 0,0.3418 0.0684,0.20508 0,0.27344 0,0.0684 -0.0684,0.27343 0,0.13672 -0.0684,0.20508 -1.02539,2.05078 -2.05078,4.10156 -0.95703,1.98243 -1.98243,4.10157 -0.13671,-0.13672 -0.27343,0.13672 0.27343,0.0684 0.13672,0.41015 -0.54688,1.91406 -1.09375,3.48633 -0.47852,1.57227 -0.88868,3.14453 -0.34179,1.57227 -0.54687,3.34961 -0.13672,1.70899 0,3.89649 0.0684,0.47851 0.20508,0.88867 0.13672,0.41015 -0.0684,0.75195 0,0.0684 -0.0684,0.0684 0,0 0,0.0684 -0.0684,0.0684 -0.0684,0.13672 l 0.27344,-0.13672 q 0.0684,0.13672 0.0684,0.3418 0,0.20507 -0.20508,0.27343 0.54687,0.3418 0.61523,1.09375 0.13672,0.75196 0.13672,1.09375 -0.13672,0.20508 -0.20508,-0.13672 -0.0684,-0.34179 -0.20508,-0.41015 -0.20507,0.88867 0.54688,1.16211 l 1.64062,4.0332 0,0.27344 q -0.13671,0.13672 -0.27343,-0.0684 -0.0684,-0.0684 -0.13672,-0.20508 -0.13672,0.3418 0.20508,0.82031 0.41015,0.47852 0.54687,0.82032 l 0.13672,0 q 0.0684,-0.3418 -0.20508,-0.61524 -0.20508,-0.27344 -0.13672,-0.61523 0.3418,0.27343 0.54688,0.68359 0.27344,0.41016 0.41015,0.82031 0.0684,0.13672 0.27344,0.41016 0.20508,0.20508 0.41016,0.54687 0.27344,0.27344 0.47851,0.54688 0.20508,0.20508 0.27344,0.27344 l 0.61524,0.61523 q 0.0684,0.0684 0.13671,0.3418 0.13672,0.20508 0.13672,0.27344 z m -15.79101,-1.64063 q 0.0684,0 0.0684,0.0684 0.0684,0.0684 0.13672,0.0684 0.13671,-0.27344 -0.20508,-0.27344 l 0,0.13672 z m 1.5039,0 q -0.13671,0 -0.13671,0.13672 0,0.13672 0.13671,0.13672 0.13672,0 0.13672,-0.13672 0,-0.13672 -0.13672,-0.13672 z m 0.3418,0 q -0.13672,0 -0.13672,0.13672 0,0.13672 0.13672,0.13672 0.13672,0 0.13672,-0.13672 0,-0.13672 -0.13672,-0.13672 z m 12.50977,0 q -0.13672,0 -0.13672,0.13672 0,0.13672 0.13672,0.13672 0.13672,0 0.13672,-0.13672 0,-0.13672 -0.13672,-0.13672 z m -0.88868,-0.88867 q -0.13671,0 -0.13671,0.13672 0,0.13672 0.13671,0.13672 0.13672,0 0.13672,-0.13672 0,-0.13672 -0.13672,-0.13672 z m -0.20507,-0.13672 q -0.13672,0 -0.13672,0.13672 0,0.13672 0.13672,0.13672 0.13672,0 0.13672,-0.13672 0,-0.13672 -0.13672,-0.13672 z m -13.05664,-0.47852 q 0.0684,0.0684 0.20507,0.27344 0.13672,0.13672 0.20508,0.20508 l 0,-0.20508 -0.41015,-0.41015 q -0.0684,0 -0.0684,0.0684 0,0.0683 0.0684,0.0683 z m 12.91992,0.13672 q -0.13672,0 -0.13672,0.20508 0,0.13672 0.13672,0.13672 0.13672,0 0.13672,-0.13672 0,-0.20508 -0.13672,-0.20508 z m -0.13672,-0.13672 q -0.13672,0 -0.13672,0.13672 0,0.13672 0.13672,0.13672 0.13672,0 0.13672,-0.13672 0,-0.13672 -0.13672,-0.13672 z m 22.49023,-0.13671 0.13672,-0.13672 -0.13672,0 0,0.13672 z m -7.58789,-0.47852 q -0.13672,0 -0.13672,0.20508 0,0.13672 0.13672,0.13672 0.13672,0 0.13672,-0.13672 0,-0.20508 -0.13672,-0.20508 z m -27.89062,0 q 0.13672,-0.20508 -0.0684,-0.47852 -0.13672,-0.27343 -0.3418,-0.41015 l 0,0.13672 q 0,0.20508 0.0684,0.27343 0,0.13672 0.0684,0.20508 l 0.27344,0.27344 z m 30.83008,-0.13672 q -0.13672,0 -0.13672,0.20508 0,0.13672 0.13672,0.13672 0.13671,0 0.13671,-0.13672 0,-0.20508 -0.13671,-0.20508 z m -2.32422,-0.27344 q -0.0684,0 -0.0684,0.0684 0,0.0684 0.0684,0.0684 0.13672,-0.0684 0.20508,-0.13672 0.13671,-0.13671 0.0684,-0.34179 -0.0684,0.0684 -0.20507,0.20508 -0.0684,0.0683 -0.0684,0.13671 z m 2.66601,0 q -0.13672,0 -0.13672,0.13672 0,0.13672 0.13672,0.13672 0.13672,0 0.13672,-0.13672 0,-0.13672 -0.13672,-0.13672 z m 5.19532,0.13672 q 0.0684,-0.13672 0.41015,-0.34179 0.3418,-0.27344 0.6836,-0.54688 0.34179,-0.3418 0.54687,-0.61523 0.20508,-0.3418 0.13672,-0.54688 -0.27344,-0.13672 -0.61524,0.13672 -0.34179,0.27344 0,0.41016 -0.20507,0.20507 -0.41015,0.13672 0.20508,0.34179 -0.20508,0.61523 -0.41016,0.27344 -0.54687,0.61523 l 0,0.13672 z m -2.25586,-0.27343 q -0.0684,-0.0684 -0.0684,0.0683 0,0.0684 0.0684,0.0684 0.27343,-0.13671 0,-0.13671 z m -4.7168,-0.3418 q -0.0684,0.0684 -0.13672,0.20508 0,0.0684 -0.0684,0.13672 0.3418,-0.13672 0.54688,-0.3418 0.20507,-0.27344 0.41015,-0.41016 1.36719,-1.16211 2.32422,-2.46094 1.02539,-1.29882 1.98242,-2.93945 0.3418,-0.61523 0.95703,-1.29883 0.6836,-0.68359 0.54688,-1.5039 -0.13672,-0.0684 -0.27344,0.13672 -0.0684,0.13671 -0.13672,0.41015 -0.0684,0.27344 -0.20508,0.54688 -0.0684,0.20508 -0.13671,0.27343 -0.13672,-0.47851 0.0684,-1.02539 0.27343,-0.54687 0.47851,-0.95703 l 0.20508,0.13672 q 0.20508,-0.13672 0.54687,-1.09375 0.3418,-1.02539 0.54688,-2.1875 0.27344,-1.16211 0.41016,-2.11914 0.13671,-0.95703 -0.0684,-0.95703 -0.27344,0.41016 -0.47852,1.16211 -0.20508,0.68359 -0.0684,1.23047 -0.20508,-0.3418 -0.47851,0.20508 -0.27344,0.47851 -0.54688,1.36718 -0.27344,0.82032 -0.54687,1.70899 -0.27344,0.88867 -0.41016,1.16211 -0.95703,2.1875 -2.05078,4.16992 -1.09375,1.91406 -2.66602,3.69141 l -0.75195,0.75195 z m 2.1875,0.3418 q 0.13672,-0.0684 0.13672,-0.20508 0.0684,-0.13672 0.0684,-0.27344 -0.0684,0 -0.13672,0.0684 0,0.0684 -0.0684,0.0684 l 0,0.3418 z m 3.00781,-0.20508 q -0.0684,0 -0.0684,0.13672 0,0.0684 0.0684,0.0684 0.0684,-0.0684 0,-0.20508 z m -4.44336,-0.41016 q -0.13672,0 -0.13672,0.13672 0,0.13672 0.13672,0.13672 0.13672,0 0.13672,-0.13672 0,-0.13672 -0.13672,-0.13672 z m -30.69336,-0.13672 q 0.0684,-0.34179 -0.0684,-0.68359 -0.13672,-0.41016 -0.41015,-0.54688 l -0.13672,0.3418 0.61523,0.88867 z m 12.16797,-0.13672 q 0.0684,0 0.0684,0.0684 0.0684,0.0684 0.13672,0.0684 0.0684,-0.27344 -0.0684,-0.82031 -0.13672,-0.54688 -0.3418,-1.09375 -0.20507,-0.54688 -0.47851,-1.02539 -0.20508,-0.47852 -0.3418,-0.68359 l -0.13672,0 q 0.13672,0.75195 0.41016,1.77734 0.27344,0.95703 0.75195,1.70898 z m 20.57617,-0.20507 q -0.13672,0 -0.13672,0.20507 0,0.13672 0.13672,0.13672 0.13672,0 0.13672,-0.13672 0,-0.20507 -0.13672,-0.20507 z m 3.14453,-0.13672 q 0.13672,0.0684 0.20508,0 0.13672,-0.13672 0.0684,-0.27344 l -0.27344,0.27344 z m -5.40039,-0.27344 q -0.13671,0 -0.13671,0.13672 0,0.13672 0.13671,0.13672 0.13672,0 0.13672,-0.13672 0,-0.13672 -0.13672,-0.13672 z m 2.73438,0.13672 0.13672,0 0,-0.13672 -0.13672,0.13672 z m 0.47851,-0.20508 q 0,0.0684 -0.0684,0.0684 0.0684,0.0684 0.27343,-0.0684 0.20508,-0.13672 0.3418,-0.3418 0.13672,-0.20508 0.20508,-0.41015 0.13672,-0.27344 0.0684,-0.41016 -0.0684,0.13672 -0.27344,0.41016 -0.20508,0.27343 -0.3418,0.34179 0,0.20508 -0.13672,0.3418 l -0.0684,0.0684 z m -34.3164,-0.54688 q 0.0684,-0.20507 -0.13672,-0.41015 l 0,0.27344 0.13672,0.13671 z m 34.11133,0 q 0,0.0684 0.0684,0.0684 0.0684,0 0.0684,-0.0684 0.13671,-0.13671 0.20507,-0.27343 0.13672,-0.13672 0.0684,-0.13672 l -0.13672,-0.20508 -0.27343,0.61523 z m 5.53711,-0.41015 q -0.0684,0 -0.13672,0.13672 0,0.0684 -0.0684,0.13672 0.47851,-0.27344 0.61523,-0.41016 0.20508,-0.20508 0.27344,-0.3418 0.0684,-0.13672 0.0684,-0.34179 0,-0.27344 0.13672,-0.6836 0.0684,-0.20508 0.34179,-0.47851 0.27344,-0.27344 0.54688,-0.47852 0.3418,-0.27344 0.54687,-0.41016 0.20508,-0.20507 0.20508,-0.27343 -0.13672,0.0684 -0.27343,0.13672 -0.0684,0.0684 -0.20508,0 -0.0684,-0.27344 0.13672,-0.61524 0.20507,-0.41015 0.34179,-0.54687 l -0.34179,0 q -0.0684,-0.27344 0.0684,-0.47852 0.20507,-0.27344 0.41015,-0.41016 -0.13672,0.13672 -0.0684,0.3418 0.0684,0.20508 0.3418,0.20508 0.3418,0 0.13672,-0.47852 -0.13672,-0.54687 -0.13672,-0.68359 0.0684,-0.3418 0.27344,-0.61523 0.20507,-0.27344 0.34179,-0.61524 0.13672,-0.3418 0.0684,-0.75195 0,-0.41016 0.3418,-0.6836 0,0.0684 0.20508,0.27344 l 0.13672,0 0.13672,-0.75195 q -0.27344,-0.13672 -0.27344,0.13672 l -0.20508,-0.13672 q 0.3418,-0.27344 0.3418,-0.41016 0.0684,-0.20508 -0.0684,-0.41015 -0.0684,-0.20508 -0.13672,-0.41016 0,-0.20508 0.20508,-0.54687 l 0,-3.75977 q 0.13672,0 0.27343,0.20508 l 0,-0.75196 q -0.20507,0.0684 -0.41015,-0.0683 -0.13672,-0.20508 -0.20508,-0.41016 -0.13672,0.0684 -0.13672,0.3418 0.27344,2.66601 -0.41016,5.19531 l -0.34179,-0.13672 0,0.3418 q 0,0.41015 -0.13672,0.41015 l 0,1.16211 q 0,0.13672 -0.13672,0.61524 -0.13672,0.47851 -0.3418,1.02539 -0.13672,0.47851 -0.34179,0.88867 -0.13672,0.3418 -0.20508,0.27344 l -0.47852,1.5039 q -0.47851,0.27344 -0.61523,0.95703 -0.0684,0.61524 -0.27344,0.95704 -0.0684,0.20507 -0.3418,0.75195 -0.27343,0.47851 -0.41015,0.61523 0.34179,-0.20508 0.61523,-0.13672 -0.0684,0.0684 -0.27344,0.27344 -0.13671,0.20508 -0.13671,0.3418 z m -0.20508,-0.3418 q -0.13672,0 -0.13672,0.20508 0,0.13672 0.13672,0.13672 0.13672,0 0.13672,-0.13672 0,-0.20508 -0.13672,-0.20508 z m -4.16992,-0.75195 q -0.13672,0 -0.13672,0.20508 0,0.13672 0.13672,0.13672 0.13671,0 0.13671,-0.13672 0,-0.20508 -0.13671,-0.20508 z m -35.6836,-0.13672 q -0.13672,0 -0.13672,0.20508 0,0.13672 0.13672,0.13672 0.13672,0 0.13672,-0.13672 0,-0.20508 -0.13672,-0.20508 z m 41.08399,0 0.13672,0 0,-0.13672 -0.13672,0.13672 z m -5.19532,-0.41016 q -0.0684,0 -0.0684,0.13672 0,0.0684 0.0684,0.13672 0.20508,0.0684 0.41016,-0.13672 0.20508,-0.27344 0.41016,-0.54687 0.20507,-0.3418 0.34179,-0.61524 0.13672,-0.34179 0.13672,-0.47851 l -0.13672,0 q -0.0684,0.0684 -0.27343,0.27343 -0.13672,0.13672 -0.20508,0.13672 0,0.13672 -0.20508,0.47852 -0.13672,0.3418 -0.20508,0.41016 0,0.0683 -0.13672,0.13671 -0.13672,0 -0.13672,0.0684 z m 5.81055,0.13672 q -0.13672,0 -0.13672,0.13672 0,0.13672 0.13672,0.13672 0.13672,0 0.13672,-0.13672 0,-0.13672 -0.13672,-0.13672 z m -3.62305,-0.75195 q -0.13671,0 -0.13671,0.13672 0,0.13672 0.13671,0.13672 0.13672,0 0.13672,-0.13672 0,-0.13672 -0.13672,-0.13672 z m 1.77735,-0.27344 q -0.13672,0 -0.13672,0.13672 0,0.13672 0.13672,0.13672 0.13672,0 0.13672,-0.13672 0,-0.13672 -0.13672,-0.13672 z m 3.00781,-0.20508 q -0.0684,0 -0.0684,0.13672 0,0.0684 0.0684,0.0684 0.0684,-0.0684 0,-0.20508 z m -4.44336,0 0.13672,-0.13672 -0.13672,0 0,0.13672 z m -0.61523,-0.27343 q -0.13672,0 -0.13672,0.13671 0,0.13672 0.13672,0.13672 0.13672,0 0.13672,-0.13672 0,-0.13671 -0.13672,-0.13671 z m 1.5039,0.13671 q 0,-0.0683 -0.13672,-0.0683 -0.0684,0 -0.0684,0.0683 0.0684,0.20508 0.20508,0 z m 3.69141,-0.13671 q 0.27344,-0.13672 0.13672,-0.27344 l -0.13672,0.27344 z m -4.44336,-0.27344 q -0.13672,0 -0.13672,0.13672 0,0.13672 0.13672,0.13672 0.13672,0 0.13672,-0.13672 0,-0.13672 -0.13672,-0.13672 z m 0.41016,0.13672 0,-0.13672 -0.13672,0 0.13672,0.13672 z m -1.64063,-0.47852 q -0.13672,0 -0.13672,0.20508 0,0.13672 0.13672,0.13672 0.13672,0 0.13672,-0.13672 0,-0.20508 -0.13672,-0.20508 z m 2.73438,-0.41015 q -0.0684,0 -0.0684,0.0683 0,0.0684 0.0684,0.0684 0,-0.27343 0.27343,-0.27343 0.0684,-0.0684 0.13672,-0.20508 0.13672,-0.27344 -0.13672,-0.27344 0,0.0684 -0.0684,0.27344 -0.0684,0.13672 -0.0684,0.20508 l -0.13671,0.13672 z m -2.39258,-0.3418 q -0.13672,0.13672 -0.13672,0.3418 l 0.13672,0 q 0,-0.0684 0.0684,-0.13672 0.0684,-0.13672 0.0684,-0.20508 l -0.13672,0 z m 1.64062,-0.27344 q -0.0684,0.0684 -0.13672,0.27344 0,0.13672 -0.0684,0.20508 0.47852,-0.3418 0.3418,-0.75196 -0.13672,0 -0.13672,0.27344 z m 0,-0.61523 q -0.13672,0 -0.13672,0.20507 0,0.13672 0.13672,0.13672 0.13672,0 0.13672,-0.13672 0,-0.20507 -0.13672,-0.20507 z m -1.23047,-0.13672 q -0.13671,0 -0.13671,0.20508 0,0.13671 0.13671,0.13671 0.13672,0 0.13672,-0.13671 0,-0.20508 -0.13672,-0.20508 z m 1.77735,-0.41016 q -0.13672,0 -0.13672,0.13672 0,0.13672 0.13672,0.13672 0.13672,0 0.13672,-0.13672 0,-0.13672 -0.13672,-0.13672 z m 0.61523,0 q -0.13672,0 -0.13672,0.13672 0,0.13672 0.13672,0.13672 0.13672,0 0.13672,-0.13672 0,-0.13672 -0.13672,-0.13672 z m 3.14453,-0.3418 q -0.0684,0 -0.0684,0.20508 0,0.13672 0.0684,0.13672 0.13672,-0.13672 0,-0.3418 z m -3.00781,0 0.13672,0 0,-0.13671 -0.13672,0.13671 z m 3.14453,-0.27343 0.13672,-0.13672 -0.13672,0 0,0.13672 z m -9.22851,-0.27344 0.13672,0 0,-0.20508 -0.13672,0.20508 z m 9.36523,-0.3418 q 0.27344,-0.0684 0.13672,-0.41015 -0.0684,0.0684 -0.0684,0.13672 -0.0684,0.0683 -0.0684,0.13671 l 0,0.13672 z m -7.86133,-0.27343 q -0.13672,0 -0.13672,0.13671 0,0.13672 0.13672,0.13672 0.13672,0 0.13672,-0.13672 0,-0.13671 -0.13672,-0.13671 z m 0.13672,-0.27344 q 0.20508,-0.20508 0.13672,-0.3418 l -0.13672,0.3418 z m 4.0332,-0.61524 q -0.13671,0 -0.13671,0.0684 0,0.0684 0.13671,0.0684 0.0684,0 0.0684,-0.0684 0,-0.0684 -0.0684,-0.0684 z m 1.29883,-0.13672 q -0.0684,-0.0683 -0.0684,0.0684 0,0.0684 0.0684,0.0684 0.13672,0 0.13672,-0.0684 0,-0.0684 -0.13672,-0.0684 z m -43.47656,-0.61523 q -0.13672,0 -0.13672,0.13672 0,0.13672 0.13672,0.13672 0.13672,0 0.13672,-0.13672 0,-0.13672 -0.13672,-0.13672 z m 43.20313,-0.27344 q -0.0684,0.0684 -0.0684,0.13672 -0.0684,0.0684 -0.0684,0.13672 0.20507,0.0684 0.41015,-0.13672 0.13672,-0.27344 0.13672,-0.61523 0.0684,-0.41016 -0.13672,-0.75196 -0.0684,0.3418 -0.13672,0.61524 0,0.27344 -0.13671,0.61523 z m -43.20313,-0.75195 q -0.0684,-0.0684 -0.0684,0.20508 0,0.27344 0.0684,0.20508 0.20508,-0.20508 0,-0.41016 z m 46.48438,0 q -0.0684,-0.0684 -0.0684,0.13672 0,0.20508 0.0684,0.13672 0.0684,-0.0684 0.0684,-0.13672 0,-0.13672 -0.0684,-0.13672 z m -3.89649,0.13672 0.13672,0 0,-0.75195 q 0,0.0683 -0.0684,0.0683 0,0 0,0.0684 -0.0684,0.0684 -0.0684,0.13672 l 0,0.47852 z m 4.0332,-0.88867 q -0.0684,0 -0.0684,0.0684 0,0.0684 0.0684,0.0684 0.0684,0 0.0684,-0.0684 0,-0.0684 -0.0684,-0.0684 z m -2.93945,-0.47852 q -0.13672,-0.0684 -0.13672,0.27344 0,0.27344 0.13672,0.20508 0.0684,-0.0684 0.0684,-0.20508 0,-0.20508 -0.0684,-0.27344 z m -0.61523,-0.54687 q -0.13672,0 -0.13672,0.13671 0,0.13672 0.13672,0.13672 0.13672,0 0.13672,-0.13672 0,-0.13671 -0.13672,-0.13671 z m -1.64063,-0.75196 q -0.13672,0 -0.13672,0.13672 0,0.13672 0.13672,0.13672 0.13672,0 0.13672,-0.13672 0,-0.13672 -0.13672,-0.13672 z m 5.19531,0.13672 0.13672,-0.3418 -0.13672,0 0,0.3418 z m -3.55468,-0.61523 q -0.0684,-0.0684 -0.0684,0.13672 0,0.20507 0.0684,0.13671 0.0684,0 0.0684,-0.0683 0,-0.13672 -0.0684,-0.20508 z m 0.75195,0 q -0.13672,0 -0.13672,0.0684 0,0.0684 0.13672,0.0684 0.0684,0 0.0684,-0.0684 0,-0.0684 -0.0684,-0.0684 z m -2.39258,0 0.13672,0 0,-0.13672 -0.13672,0 0,0.13672 z m 5.33203,-0.27344 q -0.0684,0 -0.0684,0.0684 0,0.0684 0.0684,0.0684 0.13672,0 0.13672,-0.0684 0,-0.0684 -0.13672,-0.0684 z m -1.16211,-0.3418 q -0.13672,0 -0.13672,0.20508 0,0.13672 0.13672,0.13672 0.13672,0 0.13672,-0.13672 0,-0.20508 -0.13672,-0.20508 z m 0,-0.27343 q 0,-0.0684 -0.13672,-0.0684 -0.0684,0 0,0.0684 0,0.0683 0.0684,0.0683 0.0684,0 0.0684,-0.0683 z m -2.52929,-0.75196 q -0.0684,-0.0684 -0.0684,0.13672 0,0.20508 0.0684,0.13672 0.0684,0 0.0684,-0.0684 0,-0.13672 -0.0684,-0.20508 z m 0.75195,0 q -0.13672,0 -0.13672,0.13672 0,0.13672 0.13672,0.13672 0.13672,0 0.13672,-0.13672 0,-0.13672 -0.13672,-0.13672 z m -2.25586,-0.13672 q -0.0684,0 -0.0684,0.0684 0,0.0684 0.0684,0.0684 0.0684,0 0.0684,-0.0684 0,-0.0684 -0.0684,-0.0684 z m 1.77734,-0.61523 q -0.0684,0 -0.0684,0.13672 0,0.0684 0.0684,0 0.0684,0 0.0684,-0.0684 0,-0.0684 -0.0684,-0.0684 z m 3.14454,0 q -0.13672,0 -0.13672,0.20508 0,0.13672 0.13672,0.13672 0.13671,0 0.13671,-0.13672 0,-0.20508 -0.13671,-0.20508 z m -0.75196,-1.50391 q 0,0.13672 0.0684,0.61524 0.0684,0.47851 0.0684,0.61523 0.13672,-0.13672 0.20508,-0.68359 0.0684,-0.54688 0.27344,-0.3418 l 0,-0.3418 -0.13672,0 -0.3418,-0.54687 q -0.20508,0 -0.20508,0.3418 0,0.20507 0.0684,0.34179 z m -2.39258,0.75196 q -0.0684,0 -0.0684,0.13671 0,0.0684 0.0684,0.0684 0.0684,-0.0684 0,-0.20507 z m 0.3418,-0.75196 0.13672,0 0,-0.13672 -0.13672,0.13672 z m -4.375,-1.64062 q 0.0684,0.13672 0.0684,0.47851 0.0684,0.3418 0.13672,0.47852 0.13672,-1.98242 -0.20508,-4.0332 -0.3418,-2.11914 -1.02539,-4.03321 -0.0684,0.54688 -0.0684,0.6836 0.0684,0.13672 0.20508,0.68359 0.0684,0.3418 0.20508,0.95703 0.13672,0.61524 0.20508,1.23047 0.13671,0.61523 0.20507,1.09375 0.13672,0.47852 0.13672,0.54688 0,0.0683 0,0.41015 0.0684,0.27344 0.0684,0.61524 0.0684,0.27343 0.0684,0.54687 0,0.27344 0,0.3418 z m 4.0332,0 q 0,0.13672 0.0684,0.47851 0.0684,0.3418 0.0684,0.47852 0.0684,-0.13672 0.0684,-0.41016 0.0684,-0.27343 0.13672,-0.34179 0,-0.0684 0.0684,-0.13672 0.0684,-0.13672 0.0684,-0.20508 0,-0.41016 -0.20508,-1.09375 -0.13672,-0.68359 -0.27344,-1.09375 -0.0684,0 -0.20507,0.3418 -0.0684,0.27343 -0.13672,0.68359 0,0.41016 -0.0684,0.82031 0,0.3418 0,0.47852 0,0.0684 0.0684,0.0684 0.0684,0 0.0684,-0.0684 0,-0.13672 0.0684,-0.20508 0,-0.0684 0,-0.0684 0.0684,-0.0684 0.0684,-0.13672 l 0.27343,0.13672 q -0.13672,0.0684 -0.13672,0.27344 z m -2.05078,0.61523 q -0.13672,0 -0.13672,0.13672 0,0.0684 0.13672,0 0.0684,0 0.0684,-0.0684 0,-0.0684 -0.0684,-0.0684 z m -26.79687,-0.27344 q -0.13672,0 -0.13672,0.0684 0,0.0684 0.13672,0.0684 0.0684,0 0.0684,-0.0684 0,-0.0684 -0.0684,-0.0684 z m 30.48828,0.13672 0.13672,0 0,-0.27343 -0.0684,0.0684 q -0.0684,0 -0.0684,0.0683 l 0,0.13672 z m 0.88867,0 0.13672,0 -0.13672,-0.13672 0,0.13672 z m -4.30664,-0.27343 q -0.13672,0 -0.13672,0.13671 0,0.13672 0.13672,0.13672 0.13672,0 0.13672,-0.13672 0,-0.13671 -0.13672,-0.13671 z m -1.02539,-0.20508 q 0,0.0684 0.0684,0.13672 0.0684,0 0.0684,0.0684 l 0.13672,-0.20508 q 0.0684,0 0.0684,-0.54688 0,-0.54687 -0.0684,-0.88867 -0.0684,-1.16211 -0.41016,-2.25586 -0.3418,-1.09375 -0.47851,-2.25586 l 0,-1.02539 q -0.13672,-0.75195 -0.54688,-1.43555 -0.3418,-0.75195 -0.20508,-1.5039 -0.20508,0.13672 -0.34179,-0.13672 -0.13672,-0.27344 -0.20508,-0.61523 -0.0684,-0.3418 -0.13672,-0.6836 0,-0.41015 -0.0684,-0.54687 -0.0684,-0.20508 -0.3418,-0.41016 -0.27344,-0.27344 0.0684,-0.47852 l -0.27344,0.13672 q -0.20507,0 -0.20507,-0.27343 l 0,-1.36719 q 0.20507,0.0684 0.34179,-0.0684 0.13672,-0.13672 0.27344,-0.0684 l 0,-0.13672 q -0.13672,0.0684 -0.3418,0.0684 -0.41015,0 -0.41015,-0.20508 0.34179,-0.20508 -0.0684,-0.75195 -0.3418,-0.61524 -0.6836,-0.47852 0.20508,0.3418 0.13672,0.61524 l -0.54687,0 q 0.13672,-0.13672 0,-0.27344 -0.13672,-0.20508 -0.3418,-0.13672 -0.0684,0.27344 0.0684,0.61524 0.20508,0.27343 0.3418,0.61523 0.20508,0.27344 0.34179,0.54688 0.20508,0.27343 0.13672,0.41015 -0.13672,0.13672 -0.34179,0 -0.13672,-0.13672 -0.20508,-0.27344 -0.0684,0.20508 0.0684,0.61524 0.13672,0.41015 0.34179,0 0.20508,0.41015 0.41016,0.95703 0.27344,0.54687 0.47852,0.95703 0.27343,0.41016 0.47851,0.68359 0.27344,0.20508 0.41016,0.6836 0.20508,0.54687 0,0.68359 -0.13672,0.13672 0,0.47852 l 0.47851,0 q 0.13672,1.29883 0.47852,2.39258 0.41016,1.09375 0.54687,2.39257 0.13672,0.88868 0.0684,2.05079 0,1.1621 0.41016,1.91406 z m 5.05859,-1.02539 q 0,0.0684 0.0684,0.20508 0.0684,0.0683 0.0684,0.13671 l 0,-0.34179 q 0,-0.13672 -0.13672,-0.61524 -0.0684,-0.54687 -0.13672,-0.68359 -0.13671,0.75195 0.13672,1.29883 z m -4.16992,-0.13672 q -0.0684,0 -0.0684,0.0684 0,0.0684 0.0684,0.0684 0.0684,0 0.0684,-0.0684 0,-0.0684 -0.0684,-0.0684 z m -37.25586,-0.13672 q -0.13672,0 -0.13672,0.13672 0,0.13672 0.13672,0.13672 0.13672,0 0.13672,-0.13672 0,-0.13672 -0.13672,-0.13672 z m 38.75977,0 q -0.13672,0 -0.13672,0.13672 0,0.13672 0.13672,0.13672 0.13672,0 0.13672,-0.13672 0,-0.13672 -0.13672,-0.13672 z m -0.20508,-0.75195 q -0.0684,-0.13672 -0.0684,0.34179 0,0.47852 0.0684,0.41016 0.13672,-0.13672 0.13672,-0.3418 0,-0.27343 -0.13672,-0.41015 z m -1.43555,0.13672 q -0.13672,0 -0.13672,0.20507 0,0.13672 0.13672,0.13672 0.13672,0 0.13672,-0.13672 0,-0.20507 -0.13672,-0.20507 z m -25.9082,-0.41016 q -0.13672,-0.0684 -0.13672,0.0684 0,0.0684 0.13672,0.0684 0.0684,0 0.0684,-0.0684 0,-0.0684 -0.0684,-0.0684 z m 29.32617,0 q -0.13672,0 -0.13672,0.13672 0,0.13672 0.13672,0.13672 0.13672,0 0.13672,-0.13672 0,-0.13672 -0.13672,-0.13672 z m -40.05859,-0.20508 q -0.13672,0 -0.13672,0.13672 0,0.0684 0.13672,0.0684 0.0684,-0.0684 0,-0.20508 z m 39.92187,0.20508 q 0.27344,-0.0684 0.20508,-0.54688 -0.0684,-0.47851 -0.41016,-0.34179 l 0,0.13672 0.13672,0.13671 q 0.0684,0.0684 0.0684,0.13672 l 0,0.47852 z m 0.6836,-0.61524 q -0.0684,-0.0683 -0.0684,0.13672 0,0.20508 0.0684,0.13672 0.13672,0 0.13672,-0.0684 0,-0.13672 -0.13672,-0.20508 z m -2.80274,0.13672 0.13672,0 q -0.13672,-0.20507 -0.0684,-0.27343 0.13672,-0.0684 0.20508,-0.0684 0.13672,-0.0684 0.20508,-0.13672 0.13672,-0.13672 0,-0.41016 l -0.3418,0 q -0.0684,-0.20508 0.0684,-0.61523 0.13672,-0.47852 -0.0684,-1.02539 l -0.13672,0.13672 0,2.39257 z m -37.66601,-0.27343 q -0.0684,0 -0.0684,0.0684 0,0.0683 0.0684,0.0683 0.0684,0 0.0684,-0.0683 0,-0.0684 -0.0684,-0.0684 z m -0.47852,-0.3418 q -0.13672,0 -0.13672,0.20508 0,0.13672 0.13672,0.13672 0.13672,0 0.13672,-0.13672 0,-0.20508 -0.13672,-0.20508 z m 40.81055,0 q 0.13672,-0.0684 0.13672,-0.20508 0,-0.13672 -0.13672,-0.20508 l 0,0.41016 z m 0.34179,-0.13672 q -0.13671,0 -0.13671,0.20508 0,0.13672 0.13671,0.13672 0.13672,0 0.13672,-0.13672 0,-0.20508 -0.13672,-0.20508 z m -40.94726,-0.27344 q -0.13672,-0.0684 -0.13672,0.13672 0,0.20508 0.13672,0.13672 0.0684,0 0.0684,-0.13672 0,-0.13672 -0.0684,-0.13672 z m 0.68359,0.13672 q -0.0684,0 -0.0684,0.0684 0,0.0684 0.0684,0.0684 0.13672,0 0.13672,-0.0684 0,-0.0684 -0.13672,-0.0684 z m 38.89649,-0.27344 q -0.13672,0 -0.13672,0.13672 0,0.13672 0.13672,0.13672 0.13672,0 0.13672,-0.13672 0,-0.13672 -0.13672,-0.13672 z m -38.89649,0 0.20508,0 0,-0.47851 q -0.0684,0.0684 -0.13672,0.20508 0,0.0684 -0.0684,0.0684 l 0,0.20507 z m 0.61524,-0.20507 0.13672,-0.27344 -0.13672,0.13672 0,0.13672 z m 36.36718,-0.13672 q 0,0.13672 0.13672,0.13672 0.0684,-0.13672 -0.20507,-0.6836 -0.20508,-0.61523 -0.41016,-0.47851 -0.13672,0.34179 0.0684,0.61523 0.20508,0.20508 0.41015,0.41016 z m -25.9082,-0.54688 q -0.0684,0 -0.0684,0.13672 0,0.0684 0.0684,0.13672 0.54688,-0.54688 0.41016,-1.16211 -0.20508,0.13672 -0.3418,0.47852 -0.0684,0.20507 -0.0684,0.41015 z m 28.57422,0.13672 q -0.0684,0 -0.0684,0.0684 0,0.0684 0.0684,0.0684 0.0684,0 0.0684,-0.0684 0,-0.0684 -0.0684,-0.0684 z m -39.44336,-0.61523 q -0.0684,0.0684 -0.0684,0.27343 0,0.13672 0.0684,0.20508 l 0.27344,0 q 0.13672,0 0.20508,-0.41015 0.13672,-0.47852 0.0684,-0.6836 -0.0684,-0.0684 -0.3418,0.27344 -0.20508,0.27344 -0.20508,0.3418 z m 0.54688,0.27343 q -0.13672,0 -0.13672,0.20508 0,0.13672 0.13672,0.13672 0.13671,0 0.13671,-0.13672 0,-0.20508 -0.13671,-0.20508 z m 37.39257,-1.16211 q 0.0684,0.13672 0.13672,0.47852 0.13672,0.27344 0.20508,0.41016 0.3418,-0.54688 -0.3418,-1.02539 l 0,0.13671 z m -39.30664,0.61524 q -0.0684,-0.0684 -0.0684,0.0684 0,0.0684 0.0684,0.0684 0.0684,0 0.0684,-0.0684 0,-0.0684 -0.0684,-0.0684 z m 2.25586,0 q -0.13672,-0.0684 -0.13672,0.0684 0,0.0684 0.13672,0.0684 0.0684,0 0.0684,-0.0684 0,-0.0684 -0.0684,-0.0684 z m 36.16211,0 q -0.0684,-0.0684 -0.0684,0.0684 0,0.0684 0.0684,0.0684 0.0684,0 0.0684,-0.0684 0,-0.0684 -0.0684,-0.0684 z m -0.88867,-0.3418 q -0.13672,0 -0.13672,0.20508 0,0.13672 0.13672,0.13672 0.13672,0 0.13672,-0.13672 0,-0.20508 -0.13672,-0.20508 z m -24.74609,-0.27344 q -0.13672,0 -0.13672,0.13672 0,0.13672 0.13672,0.13672 0.13672,0 0.13672,-0.13672 0,-0.13672 -0.13672,-0.13672 z m -10.86914,-0.13671 q 0.20507,0.20507 0.34179,0.13671 0.27344,-0.61523 0.13672,-1.1621 -0.13672,0.0683 -0.3418,0.47851 -0.20507,0.41016 -0.13671,0.54688 z m 0.61523,0 0.27344,-0.61524 -0.13672,0 q 0,0.0684 -0.0684,0.20508 -0.0684,0.13672 -0.0684,0.27344 l 0,0.13672 z m 35.61523,-0.3418 q -0.13671,0 -0.13671,0.13672 0,0.0684 0.13671,0.0684 0.0684,-0.0684 0,-0.20508 z m 1.0254,-0.13672 q -0.13672,0 -0.13672,0.20508 0,0.13672 0.13672,0.13672 0.13671,0 0.13671,-0.13672 0,-0.20508 -0.13671,-0.20508 z m 4.30664,0 q -0.13672,0 -0.13672,0.20508 0,0.13672 0.13672,0.13672 0.13671,0 0.13671,-0.13672 0,-0.20508 -0.13671,-0.20508 z m -5.67383,-0.27344 q 0.0684,0.0684 0.0684,0.20508 0.0684,0.0684 0.13672,0.0684 0,-0.13672 -0.0684,-0.3418 0,-0.27343 -0.13672,-0.41015 l 0,0.47851 z m -5.81055,0 q -0.0684,0 -0.0684,0.0684 0,0.0684 0.0684,0.0684 0.13672,0 0.13672,-0.0684 0,-0.0684 -0.13672,-0.0684 z m 8.06641,-0.13672 q -0.13672,0 -0.13672,0.13672 0,0.13672 0.13672,0.13672 0.13672,0 0.13672,-0.13672 0,-0.13672 -0.13672,-0.13672 z m -26.66016,-0.13671 q -0.0684,-0.0684 -0.0684,0.0683 0,0.0684 0.0684,0.0684 0.0684,0 0.0684,-0.0684 0,-0.0683 -0.0684,-0.0683 z m 23.51563,0 q -0.13672,0 -0.13672,0.13671 0,0.13672 0.13672,0.13672 0.13671,0 0.13671,-0.13672 0,-0.13671 -0.13671,-0.13671 z m -2.80274,-0.3418 q -0.0684,0 -0.0684,0.20508 0,0.13672 0.0684,0.13672 0.13672,-0.13672 0,-0.3418 z m 5.0586,0 q -0.13672,0 -0.13672,0.20508 0,0.13672 0.13672,0.13672 0.13671,0 0.13671,-0.13672 0,-0.20508 -0.13671,-0.20508 z m -36.64063,-0.13672 q -0.13672,0 -0.13672,0.13672 0,0.13672 0.13672,0.13672 0.13672,0 0.13672,-0.13672 0,-0.13672 -0.13672,-0.13672 z m 35.13672,0.13672 q 0.13672,-0.3418 -0.13672,-0.41016 l 0,0.13672 0.13672,0.27344 z m -3.82813,-0.41016 q 0.0684,0.0684 0.0684,0.13672 0,0.13672 0.0684,0.13672 0.13672,-0.0684 0.13672,-0.27344 0,-0.27344 -0.0684,-0.54687 -0.0684,-0.27344 -0.27344,-0.41016 -0.13671,-0.20508 -0.27343,-0.13672 l 0,0.20508 q 0.0684,0.0684 0.13672,0.41016 0.13671,0.34179 0.20507,0.47851 z m -0.47851,0 0.13672,0 0,-0.20508 -0.13672,0 0,0.20508 z m 2.5293,-0.34179 q -0.13672,0 -0.13672,0.20507 0,0.13672 0.13672,0.13672 0.13671,0 0.13671,-0.13672 0,-0.20507 -0.13671,-0.20507 z m 0.47851,-0.13672 q -0.13672,-0.0684 -0.13672,0.13672 0,0.20507 0.13672,0.13671 0.0684,0 0.0684,-0.0684 0,-0.13671 -0.0684,-0.20507 z m 2.1875,0 0.3418,0 q -0.0684,-0.20508 -0.20508,-0.47852 -0.0684,-0.27344 -0.27344,-0.41016 l -0.13672,0.13672 0.27344,0.75196 z M 355.7673,433.3555 q -0.0684,-0.13672 -0.20507,0 -0.0684,0.0684 0.0684,0.13672 0.0684,0.0684 0.13672,0 0.0684,-0.0684 0,-0.13672 z m 32.88086,0.13672 0,-0.27344 -0.13672,0 0.13672,0.27344 z m -2.93945,-0.47852 q -0.0684,0 -0.0684,0.13672 0,0.0684 0.0684,0.0684 0.0684,-0.0684 0,-0.20508 z m -29.94141,-0.13672 q 0.27344,0.13672 0.27344,-0.13672 l -0.13672,-0.13671 -0.13672,0.13671 0,0.13672 z m 30.21485,-0.13672 0,-0.27343 -0.13672,0 0.13672,0.27343 z m 2.39258,-0.41015 q -0.13672,0 -0.13672,0.13672 0,0.13672 0.13672,0.13672 0.13671,0 0.13671,-0.13672 0,-0.13672 -0.13671,-0.13672 z m 2.11914,-0.3418 q 0,0.0684 0.0684,0.20508 0.13671,0.0684 0.20507,0.13672 l 0,-0.47852 -1.36718,-2.66601 -0.13672,-0.13672 q -0.0684,0.20508 0.0684,0.61523 0.13672,0.41016 0.34179,0.88867 0.20508,0.47852 0.41016,0.88868 0.27344,0.34179 0.41016,0.54687 z m 3.41796,0.13672 q -0.13671,0 -0.13671,0.20508 0,0.13672 0.13671,0.13672 0.13672,0 0.13672,-0.13672 0,-0.20508 -0.13672,-0.20508 z m -5.67382,0 q 0.13672,-0.54687 -0.13672,-1.09375 -0.20508,-0.54687 -0.61524,-0.82031 l -0.13672,0 0.75196,1.77734 0.13672,0.13672 z m 0.41015,-0.27344 q -0.13672,0 -0.13672,0.13672 0,0.13672 0.13672,0.13672 0.13672,0 0.13672,-0.13672 0,-0.13672 -0.13672,-0.13672 z m 5.0586,0 q -0.13672,0 -0.13672,0.13672 0,0.13672 0.13672,0.13672 0.13672,0 0.13672,-0.13672 0,-0.13672 -0.13672,-0.13672 z m -6.22071,-0.13672 q -0.13672,0 -0.13672,0.13672 0,0.13672 0.13672,0.13672 0.13672,0 0.13672,-0.13672 0,-0.13672 -0.13672,-0.13672 z m -1.77734,-0.34179 q -0.13672,0 -0.13672,0.20508 0,0.13671 0.13672,0.13671 0.13672,0 0.13672,-0.13671 0,-0.20508 -0.13672,-0.20508 z m -29.32617,-0.54688 q -0.13672,0 -0.13672,0.0684 0,0.0684 0.13672,0.0684 0.0684,0 0.0684,-0.0684 0,-0.0684 -0.0684,-0.0684 z m 28.4375,0 q -0.13672,0 -0.13672,0.0684 0,0.0684 0.13672,0.0684 0.0684,0 0.0684,-0.0684 0,-0.0684 -0.0684,-0.0684 z m 2.1875,-0.13672 q -0.0684,-0.0684 -0.0684,0.0684 0,0.0684 0.0684,0.0684 0.13672,0 0.13672,-0.0684 0,-0.0684 -0.13672,-0.0684 z m -1.64063,0 0.20508,0 -0.20508,-0.47851 0,0.47851 z m -17.08984,-0.34179 q -0.0684,0 -0.0684,0.13672 0,0.0683 0.0684,0 0.0684,0 0.0684,-0.0684 0,-0.0684 -0.0684,-0.0684 z m -11.00586,-0.41016 q -0.13672,0 -0.13672,0.13672 0,0.13672 0.13672,0.13672 0.13672,0 0.13672,-0.13672 0,-0.13672 -0.13672,-0.13672 z m 30.69336,0 q -0.13672,0 -0.13672,0.13672 0,0.13672 0.13672,0.13672 0.13672,0 0.13672,-0.13672 0,-0.13672 -0.13672,-0.13672 z m -2.87109,-0.20508 q -0.13672,0 -0.13672,0.20508 0,0.13672 0.13672,0.13672 0.13671,0 0.13671,-0.13672 0,-0.20508 -0.13671,-0.20508 z m 2.11914,-0.27344 q -0.13672,0 -0.13672,0.13672 0,0.13672 0.13672,0.13672 0.13671,0 0.13671,-0.13672 0,-0.13672 -0.13671,-0.13672 z m 1.91406,-0.75195 q -0.0684,0 -0.0684,0.13672 0,0.0684 0.0684,0 0.0684,0 0.0684,-0.0684 0,-0.0684 -0.0684,-0.0684 z m -2.5293,-0.13672 0.13672,0 q 0.13672,-0.27343 -0.13672,-0.27343 l 0,0.27343 z m -27.82226,-0.88867 q -0.0684,-0.0684 -0.20508,0.0684 -0.0684,0.0684 0,0.0684 0.20508,0.13672 0.20508,-0.13672 z m 24.54101,-0.88867 q -0.20508,-0.54688 -0.13672,-0.88867 0.27344,0.20508 0.41016,0.61523 0.20508,0.3418 0.3418,0.6836 -0.13672,0.20507 -0.3418,0.20507 0,-0.13672 -0.13672,-0.34179 -0.0684,-0.20508 -0.13672,-0.27344 z m -24.13086,0.13672 q 0,0.0684 -0.0684,0.0684 0,0 0,0.0684 -0.0684,0.0684 -0.0684,0.13672 0.0684,-0.0684 0.27344,-0.41016 l -0.13672,0.13672 z m 25.15625,-0.88867 q 0.13672,0.27343 0.3418,0.13671 l -0.3418,-0.61523 0,0.47852 z m 0.75196,0.13671 q 0.34179,-0.13671 0.27343,-0.47851 0,-0.41016 -0.41015,-0.27344 -0.0684,-0.0684 0.13672,-0.27344 -0.13672,-0.13671 -0.61524,-0.68359 -0.47851,-0.54687 -1.02539,-1.09375 -0.47852,-0.61523 -1.02539,-1.02539 -0.47852,-0.41016 -0.75195,-0.3418 0.27343,0.27344 0.27343,0.61524 0,0.27343 0.3418,0.41015 l 0,-0.27343 q 0.27344,-0.20508 0.54688,0.34179 0.34179,0.54688 0.54687,1.16211 0.27344,0.61524 0.47852,1.02539 0.27343,0.41016 0.47851,0 l 0.47852,0.47852 0.13672,0.27344 0.13672,0.13671 z m 0.47851,-0.27343 q -0.13672,0 -0.13672,0.13672 0,0.13671 0.13672,0.13671 0.13672,0 0.13672,-0.13671 0,-0.13672 -0.13672,-0.13672 z m 4.58008,-0.3418 q -0.13672,0 -0.13672,0.20508 0,0.13672 0.13672,0.13672 0.13672,0 0.13672,-0.13672 0,-0.20508 -0.13672,-0.20508 z m -0.13672,-0.13672 q -0.0684,0 -0.0684,0.13672 0,0.0684 0.0684,0 0.13672,0 0,-0.13672 z m -6.5625,-0.41015 q -0.0684,0 -0.0684,0.0683 0,0.0684 0.0684,0.0684 0.0684,0 0.0684,-0.0684 0,-0.0683 -0.0684,-0.0683 z m -1.64062,-0.3418 q 0.0684,0.13672 0.13671,0.20508 0.13672,0.27343 0.3418,0.13672 l -0.3418,-0.47852 -0.13671,0.13672 z m 0.61523,-1.64063 q -0.13672,0 -0.13672,0.20508 0,0.13672 0.13672,0.13672 0.13672,0 0.13672,-0.13672 0,-0.20508 -0.13672,-0.20508 z m -1.91406,-0.13672 q 0,-0.0683 -0.13672,-0.0683 -0.0684,0 -0.0684,0.0683 0.0684,0.20508 0.20508,0 z m -0.3418,-0.27343 q -0.13672,0 -0.13672,0.13672 0,0.13671 0.13672,0.13671 0.13672,0 0.13672,-0.13671 0,-0.13672 -0.13672,-0.13672 z m 6.42578,-1.23047 q -0.13672,0 -0.13672,0.20508 0,0.13672 0.13672,0.13672 0.13672,0 0.13672,-0.13672 0,-0.20508 -0.13672,-0.20508 z m -1.77734,-0.88867 q 0,0.20507 0.27344,0.20507 l 0,-0.20507 -0.27344,0 z m -9.36524,-0.13672 q -0.13672,0 -0.13672,0.20508 0,0.13671 0.13672,0.13671 0.13672,0 0.13672,-0.13671 0,-0.20508 -0.13672,-0.20508 z m -5.26367,-1.16211 q -0.13672,0 -0.13672,0.13672 0,0.13672 0.13672,0.13672 0.13672,0 0.13672,-0.13672 0,-0.13672 -0.13672,-0.13672 z m 0.47852,0 q 0,-0.13672 -0.13672,-0.13672 -0.0684,0 0,0.13672 0,0.0684 0.0684,0.0684 0.0684,0 0.0684,-0.0684 z m 0.41015,-0.61524 q 0.0684,-0.0684 -0.0684,-0.0684 -0.0684,0 -0.0684,0.0684 0,0.0684 0.0684,0.0684 0.0684,0 0.0684,-0.0684 z"
         style="font-style:normal;font-variant:normal;font-weight:normal;font-stretch:normal;font-size:70px;font-family:'KG Life is Messy';-inkscape-font-specification:'KG Life is Messy'"
         id="path4149"
         inkscape:connector-curvature="0" />
    </g>
  </g>
</svg>
