<svg width="384.07" height="321.05" xmlns="http://www.w3.org/2000/svg">
 <defs>
  <style>.cls-1{fill:#f7413a;}</style>
 </defs>
 <title>icon-mail</title>
 <g>
  <title>background</title>
  <rect x="-1" y="-1" width="386.07" height="323.05" id="canvas_background" fill="none"/>
 </g>
 <g>
  <title>Layer 1</title>
  <path class="cls-1" d="m157.65,291c-2.2,-2.33 -3.39,-3.65 -4.65,-4.9l-130.79,-130.78c-10.21,-10.18 -10.21,-18.14 -0.09,-28.27l119.48,-119.5c10.1,-10.1 18.1,-10.07 28.29,0.13l192,192c10.18,10.18 10.21,18.19 0.11,28.29q-28.8,28.82 -57.64,57.61c-1.41,1.4 -3,2.57 -4.58,3.85l0.49,1.35c1.67,0.1 3.33,0.28 5,0.28c20.67,0 41.33,-0.07 62,0.05c10.29,0.06 16.89,6.16 16.83,15.11a14.64,14.64 0 0 1 -13.1,14.57a57,57 0 0 1 -6.49,0.25q-172.49,0 -345,0a35.37,35.37 0 0 1 -9.4,-0.85c-6.49,-1.85 -10.64,-8.57 -10.06,-15.49a14.63,14.63 0 0 1 12.3,-13.21a49.59,49.59 0 0 1 7.47,-0.42q65.25,0 130.49,0l7.34,-0.07zm-12.32,-240l-90.84,91a10.45,10.45 0 0 0 0.86,1q72.8,72.83 145.7,145.57a10.33,10.33 0 0 0 6.59,2.39c13.66,0.22 27.33,0 41,0.18a10.5,10.5 0 0 0 8.26,-3.55q29.4,-29.63 59,-59.07c1.12,-1.12 2.15,-2.32 3.59,-3.89c-1.55,-0.45 -2.47,-0.79 -3.41,-1q-63.71,-13.56 -127.43,-27.06c-8.61,-1.82 -13.76,-6.72 -15.58,-15.38q-11,-52.26 -22.14,-104.49c-1.88,-8.7 -3.8,-17.42 -5.6,-25.7zm156.42,135.84l-118.95,-118.94a14.83,14.83 0 0 0 0.24,1.65c6.63,31.08 13.22,62.16 20,93.2a6.32,6.32 0 0 0 4,3.83c21.76,4.83 43.58,9.42 65.38,14.07l29.33,6.19z" id="svg_1" fill="#f7413a"/>
 </g>
</svg>