<svg xmlns="http://www.w3.org/2000/svg" viewBox="0 0 384.07 321.05"><defs><style>.cls-1{fill:#40b8e9;}</style></defs><title>icon-mail</title><g id="Layer_2" data-name="Layer 2"><g id="Layer_1-2" data-name="Layer 1"><path class="cls-1" d="M157.65,291c-2.2-2.33-3.39-3.65-4.65-4.9L22.21,155.32C12,145.14,12,137.18,22.12,127.05L141.6,7.55c10.1-10.1,18.1-10.07,28.29.13l192,192c10.18,10.18,10.21,18.19.11,28.29q-28.8,28.82-57.64,57.61c-1.41,1.4-3,2.57-4.58,3.85l.49,1.35c1.67.1,3.33.28,5,.28,20.67,0,41.33-.07,62,.05,10.29.06,16.89,6.16,16.83,15.11A14.64,14.64,0,0,1,371,320.79a57,57,0,0,1-6.49.25q-172.49,0-345,0a35.37,35.37,0,0,1-9.4-.85C3.62,318.34-.53,311.62.05,304.7a14.63,14.63,0,0,1,12.3-13.21,49.59,49.59,0,0,1,7.47-.42q65.25,0,130.49,0ZM145.33,51,54.49,142a10.45,10.45,0,0,0,.86,1q72.8,72.83,145.7,145.57a10.33,10.33,0,0,0,6.59,2.39c13.66.22,27.33,0,41,.18a10.5,10.5,0,0,0,8.26-3.55q29.4-29.63,59-59.07c1.12-1.12,2.15-2.32,3.59-3.89-1.55-.45-2.47-.79-3.41-1q-63.71-13.56-127.43-27.06c-8.61-1.82-13.76-6.72-15.58-15.38q-11-52.26-22.14-104.49C149.05,68,147.13,59.28,145.33,51ZM301.75,186.84,182.8,67.9a14.83,14.83,0,0,0,.24,1.65c6.63,31.08,13.22,62.16,20,93.2a6.32,6.32,0,0,0,4,3.83c21.76,4.83,43.58,9.42,65.38,14.07Z"/></g></g></svg>