<svg xmlns="http://www.w3.org/2000/svg" viewBox="0 0 623.9 508.4"><title>icon-twitter</title><g data-name="Layer 2"><g data-name="Layer 1"><path d="M187.4 398.4c-68-3.7-107.9-54-117.3-89.5 18.4 2.9 36.5 2.4 54.6-2.5-29-7.7-53.4-22.3-72.1-45.8s-28.1-50.4-28-81.4c18.1 9 36.1 15 57.3 15.3-27.9-20.2-45.9-45.7-53-78.2s-2.4-63 13.9-92.4c69.5 81.5 157.1 126.5 264.3 133.9-0.9-8.6-2-16.3-2.3-24Q302.4 87.1 331.1 50c19-24.5 43.7-40.4 73.9-46.8 33.4-7.1 65.4-2.2 94.5 16 8.5 5.3 15.8 12.6 23.9 18.7A9.2 9.2 0 0 0 530 39.5 252.7 252.7 0 0 0 603.4 11.8c0.9-0.5 1.8-0.8 3.9-1.9-9.9 29.9-27.9 52-53 68.6l0.4 1.4c7.7-1.3 15.4-2.4 22.9-4.1 7.8-1.8 15.5-4 23-6.4S615.6 64 623.9 62c-5.8 7.5-11.5 15-17.6 22.3-12.5 15-26.8 28.1-42.3 40-1.7 1.3-2.9 4.5-2.9 6.7a367.2 367.2 0 0 1-8 87.3 388.5 388.5 0 0 1-34.4 95.5 369.9 369.9 0 0 1-42.5 65c-15.7 19.2-32.8 37.4-52.8 52.1a596.3 596.3 0 0 1-49.7 33.3C347.5 479.8 319 490 289.5 497.4c-41.3 10.4-83.2 13-125.4 9.7a347.7 347.7 0 0 1-89-19.3A368.5 368.5 0 0 1 4.5 454.1c-1.1-0.7-2.1-1.4-4.5-2.9C70.3 457.7 132.5 440.7 187.4 398.4Z"/></g></g></svg>