<svg xmlns="http://www.w3.org/2000/svg" viewBox="0 0 391.65 391.49"><title>icon-facebook</title><g id="Layer_2" data-name="Layer 2"><g id="Layer_1-2" data-name="Layer 1"><path d="M.32,195.73c0-41.49-.88-83,.29-124.46.85-30,15.9-52.18,43.8-64.8A67.3,67.3,0,0,1,72.25.11C154.9,0,237.54-.15,320.19.24c20.59.1,38.32,8.58,52.26,23.94,11.82,13,18.85,28.64,18.93,46.16q.56,124.21.07,248.43c-.1,30.68-19.91,59.28-50.2,68.34-7.39,2.21-15.23,4.07-22.88,4.1-81.64.29-163.29.46-244.93,0-28-.15-49.63-13.35-63.8-37.5a67.06,67.06,0,0,1-9.31-34Q.27,257.71.32,195.73Zm271.59-30.49c0-10.81-.08-20.78,0-30.75.09-8.46,4.4-12.79,12.83-13,8.83-.18,17.66-.17,26.49-.25,3.13,0,5.6-.76,5.59-4.69q-.06-18.24,0-36.49c0-3.07-1-4.63-4.31-4.59-17.82.23-35.67-.06-53.47.65-11,.44-21.49,3.81-30.21,10.82-12.93,10.39-17.4,24.87-18,40.76-.38,10.65-.27,21.33-.08,32,.07,4.18-1.55,5.72-5.56,5.59-4.83-.15-9.66,0-14.49-.1-2.73-.07-3.91,1-3.89,3.78.06,12.5,0,25,0,37.49,0,2.73.7,4.43,3.94,4.31,4.33-.17,8.66-.05,13,0,7,0,7,0,7,6.89q0,61,0,122c0,1.93,0,3.86,0,5.69h61.39V210.75c10.89,0,21.21,0,31.52,0,3,0,4.91-.33,5.24-4.17,1-11.39,2.37-22.74,3.73-34.09.82-6.85.61-7.26-6.1-7.27C295.26,165.21,283.95,165.23,271.91,165.23Z"/></g></g></svg>