<?xml version="1.0" encoding="UTF-8" standalone="no"?>
<svg xmlns:dc="http://purl.org/dc/elements/1.1/" xmlns:cc="http://creativecommons.org/ns#" xmlns:rdf="http://www.w3.org/1999/02/22-rdf-syntax-ns#" xmlns:svg="http://www.w3.org/2000/svg" xmlns="http://www.w3.org/2000/svg" xmlns:sodipodi="http://sodipodi.sourceforge.net/DTD/sodipodi-0.dtd" xmlns:inkscape="http://www.inkscape.org/namespaces/inkscape" viewBox="0 0 199.42 198.87" id="svg2" version="1.1" inkscape:version="0.91 r13725" sodipodi:docname="icon-instagram.svg">
    <metadata id="metadata20">
        <rdf:RDF>
            <cc:Work rdf:about="">
                <dc:format>image/svg+xml</dc:format>
                <dc:type rdf:resource="http://purl.org/dc/dcmitype/StillImage" />
            </cc:Work>
        </rdf:RDF>
    </metadata>
    <sodipodi:namedview pagecolor="#ffffff" bordercolor="#666666" borderopacity="1" objecttolerance="10" gridtolerance="10" guidetolerance="10" inkscape:pageopacity="0" inkscape:pageshadow="2" inkscape:window-width="1920" inkscape:window-height="1017" id="namedview18" showgrid="false" inkscape:zoom="1.1867049" inkscape:cx="-148.8775" inkscape:cy="99.434996" inkscape:window-x="-8" inkscape:window-y="-8" inkscape:window-maximized="1" inkscape:current-layer="svg2" />
    <defs id="defs4">
        <style id="style6">
        .cls-1 {
            fill: #fff;
        }
        </style>
    </defs>
    <title id="title8">icon-instagram</title>
    <g id="Layer_2" data-name="Layer 2">
        <g id="Layer_1-2" data-name="Layer 1">
            <path class="cls-1" d="M0,59.46C.75,54.21,1.23,48.9,2.3,43.71,7.47,18.68,27.11,1.24,53,.6c31.28-.77,62.61-.84,93.88,0,29.11.78,51.15,22.77,51.95,51.84q1.28,46.92,0,93.9c-.78,29.08-22.8,51.12-51.88,51.9q-46.92,1.26-93.9,0C23.94,197.45,2.66,175.41.94,146.32.8,144,.32,141.75,0,139.46Zm181.09,40h0c0-14.16.38-28.33-.09-42.47-.8-24-14.27-38-38.2-38.49q-42.7-.94-85.44,0C33.27,19,19.55,32.67,19,56.7q-.94,42.45,0,84.94c.55,24.73,14.24,38.33,38.87,38.82q42.46.84,84.95,0c23.6-.47,37.4-14.49,38.2-38C181.49,128.11,181.09,113.77,181.09,99.44Z" id="path12" style="fill:#000000;fill-opacity:1" />
            <path class="cls-1" d="M151.25,99.46A51.28,51.28,0,1,1,99.88,48.14,50.95,50.95,0,0,1,151.25,99.46ZM99.61,132.58a33.15,33.15,0,0,0,1-66.29C81.86,66.1,67,80.48,66.84,98.94,66.68,117.62,81.14,132.47,99.61,132.58Z" id="path14" style="fill:#000000;fill-opacity:1" />
            <path class="cls-1" d="M165.26,46.15a12,12,0,0,1-12,12A12.4,12.4,0,0,1,141.19,46a12.05,12.05,0,0,1,12.21-11.84A11.56,11.56,0,0,1,165.26,46.15Z" id="path16" />
        </g>
    </g>
    <circle style="opacity:1;fill:#000000;fill-opacity:1;stroke:none;stroke-width:5;stroke-linecap:round;stroke-linejoin:round;stroke-miterlimit:4;stroke-dasharray:none" id="path4139" cx="152.56848" cy="46.301521" r="15" />
</svg>
