<svg xmlns="http://www.w3.org/2000/svg" version="1.1" x="0" y="0" viewBox="0 0 48.3 48.1" xml:space="preserve"><style type="text/css">
	.st0{fill:#141414;}
	.st1{fill:#F7413B;}
	.st2{fill:#3DB9E9;}
</style><path class="st0" d="M46.3 23.3C39.2 16.2 32.1 9.2 25 2.1 24.9 2 24.8 2 24.8 1.9c-0.3-0.3-0.6-0.3-0.9 0 -0.5 0.5-1 0.9-1.4 1.4C15.6 10.1 8.8 17 1.9 23.8c-0.5 0.5-0.5 0.7 0 1.2 3.7 3.6 7.3 7.3 11 10.9 3.5 3.5 7 7 10.5 10.5 0.4 0.4 0.7 0.5 1.1 0 0.6-0.7 1.3-1.3 1.9-1.9 2.4-2.4 4.7-4.7 7.1-7.1 4.3-4.3 8.6-8.6 13-12.9 0.1-0.1 0.3-0.3 0.3-0.5C46.7 23.7 46.5 23.5 46.3 23.3zM42.9 24.6c-6.2 6.1-12.3 12.2-18.4 18.3 -0.2 0.2-0.3 0.4-0.6 0.4 -0.1-0.1-0.3-0.2-0.4-0.3 -6-6-12.1-12.1-18.1-18.1 -0.4-0.4-0.3-0.6 0-0.9 6.2-6.1 12.3-12.3 18.5-18.4 0.4-0.4 0.6-0.4 1 0 6 6 12 12 18 18C43.4 24 43.2 24.2 42.9 24.6z"/><path class="st0" d="M19.9 21.7c-1-1-0.8-1-1.8 0 -0.9 0.9-1 0.7 0 1.7 1.5 1.5 3 3 4.5 4.5 0.8 0.8 1 1.8 0.6 2.6 -0.7 1.4-2.3 1.7-3.5 0.6 -1.4-1.4-2.8-2.8-4.3-4.2 -1.5-1.5-1-1.3-2.4 0 -0.5 0.4-0.4 0.7 0 1.1 1.6 1.6 3.2 3.2 4.8 4.8 1.5 1.4 3.2 1.8 5 1.1 1.8-0.8 3-2.6 3-4.6 0-1-0.5-2-1.3-2.9C22.9 24.7 21.4 23.2 19.9 21.7z"/><path class="st0" d="M28.1 26.4c1 1 0.8 1 1.8 0 0.9-0.9 1-0.7 0-1.7 -1.5-1.5-3-3-4.5-4.5 -0.8-0.8-1-1.8-0.6-2.6 0.7-1.4 2.3-1.7 3.5-0.6 1.4 1.4 2.8 2.8 4.3 4.2 1.5 1.5 1 1.3 2.4 0 0.5-0.4 0.4-0.7 0-1.1 -1.6-1.6-3.2-3.2-4.8-4.8 -1.5-1.4-3.2-1.8-5-1.1 -1.8 0.8-3 2.6-3 4.6 0 1 0.5 2 1.3 2.9C25.1 23.4 26.6 24.9 28.1 26.4z"/><path class="st1" d="M16.1 20.2c0.3-0.3 0.3-0.6 0-0.8 -0.3-0.3-0.6-0.6-0.9-0.9 -0.4-0.4-0.6-0.3-0.9 0 -1.4 1.4-2.8 2.8-4.3 4.2 -0.3 0.3-0.4 0.5 0 0.9 0.3 0.3 0.6 0.6 1 0.9 0.3 0.3 0.5 0.3 0.9 0C13.3 23 14.7 21.6 16.1 20.2z"/><path class="st2" d="M37.3 23.8c-0.3-0.3-0.5-0.3-0.8 0 -1.4 1.4-2.9 2.9-4.3 4.3 -0.3 0.3-0.3 0.5 0 0.8 0.3 0.3 0.7 0.7 1 1 0.3 0.3 0.5 0.2 0.8 0 1.4-1.4 2.9-2.9 4.3-4.3 0.3-0.3 0.3-0.5 0-0.8C38 24.5 37.6 24.2 37.3 23.8z"/></svg>