<?xml version="1.0" encoding="UTF-8" standalone="no"?>
<!-- Generator: Adobe Illustrator 19.0.1, SVG Export Plug-In . SVG Version: 6.00 Build 0)  -->

<svg
   xmlns:dc="http://purl.org/dc/elements/1.1/"
   xmlns:cc="http://creativecommons.org/ns#"
   xmlns:rdf="http://www.w3.org/1999/02/22-rdf-syntax-ns#"
   xmlns:svg="http://www.w3.org/2000/svg"
   xmlns="http://www.w3.org/2000/svg"
   xmlns:sodipodi="http://sodipodi.sourceforge.net/DTD/sodipodi-0.dtd"
   xmlns:inkscape="http://www.inkscape.org/namespaces/inkscape"
   version="1.1"
   id="Слой_1"
   x="0px"
   y="0px"
   viewBox="0 0 440.27248 36.479999"
   xml:space="preserve"
   inkscape:version="0.92.0 r15299"
   sodipodi:docname="logo-clean.svg"
   width="440.27249"
   height="36.48"><metadata
     id="metadata23"><rdf:RDF><cc:Work
         rdf:about=""><dc:format>image/svg+xml</dc:format><dc:type
           rdf:resource="http://purl.org/dc/dcmitype/StillImage" /><dc:title></dc:title></cc:Work></rdf:RDF></metadata><defs
     id="defs21" /><sodipodi:namedview
     pagecolor="#ffffff"
     bordercolor="#666666"
     borderopacity="1"
     objecttolerance="10"
     gridtolerance="10"
     guidetolerance="10"
     inkscape:pageopacity="0"
     inkscape:pageshadow="2"
     inkscape:window-width="1920"
     inkscape:window-height="1017"
     id="namedview19"
     showgrid="false"
     inkscape:zoom="1"
     inkscape:cx="445.32588"
     inkscape:cy="-62.47713"
     inkscape:window-x="-8"
     inkscape:window-y="-8"
     inkscape:window-maximized="1"
     inkscape:current-layer="Слой_1"
     fit-margin-top="0"
     fit-margin-left="0"
     fit-margin-right="0"
     fit-margin-bottom="0" /><style
     type="text/css"
     id="style3">
	.st0{fill:#141414;}
</style><g
     aria-label="THE STORY"
     style="font-style:normal;font-variant:normal;font-weight:normal;font-stretch:normal;font-size:40px;line-height:25px;font-family:'Fira Mono';-inkscape-font-specification:'Fira Mono';letter-spacing:0px;word-spacing:0px;fill:#000000;fill-opacity:1;stroke:none"
     id="text4506"><path
       d="M 29.759999,0.64000099 H -2.0980835e-8 V 7.1466675 H 11.253333 V 35.84 h 7.2 V 7.1466675 h 11.306666 z"
       style="font-style:normal;font-variant:normal;font-weight:normal;font-stretch:normal;font-size:53.33333206px;font-family:CeraGR-Bold;-inkscape-font-specification:CeraGR-Bold;letter-spacing:20px"
       id="path4508" /><path
       d="m 84.529999,0.64000099 h -7.2 V 14.133334 H 61.756666 V 0.64000099 H 54.556667 V 35.84 h 7.199999 V 20.640001 H 77.329999 V 35.84 h 7.2 z"
       style="font-style:normal;font-variant:normal;font-weight:normal;font-stretch:normal;font-size:53.33333206px;font-family:CeraGR-Bold;-inkscape-font-specification:CeraGR-Bold;letter-spacing:20px"
       id="path4510" /><path
       d="m 136.25749,0.64000099 h -23.68 V 35.84 h 24.32 v -6.506666 h -17.12 v -8.906667 h 12.10667 V 14.293334 H 119.77749 V 7.1466675 h 16.48 z"
       style="font-style:normal;font-variant:normal;font-weight:normal;font-stretch:normal;font-size:53.33333206px;font-family:CeraGR-Bold;-inkscape-font-specification:CeraGR-Bold;letter-spacing:20px"
       id="path4512" /><path
       d="m 209.03417,1.0070801e-6 c -3.41334,0 -6.18667,0.9599999729199 -8.37334,2.7733332929199 -2.24,1.8133333 -3.30666,4.2133332 -3.30666,7.1999998 0,2.3466669 0.69333,4.2666669 2.18666,5.8666669 1.49334,1.6 3.57334,3.04 6.34667,4.266666 l 3.78667,1.706667 c 1.12,0.533333 1.92,0.96 2.45333,1.226666 0.53333,0.32 0.96,0.746667 1.38667,1.28 0.42666,0.533334 0.64,1.173334 0.64,1.866667 0,1.226667 -0.48,2.186667 -1.33334,2.88 -0.90666,0.693333 -2.13333,1.013333 -3.68,1.013333 -3.30666,0 -6.18666,-1.706666 -8.64,-5.12 l -4.96,3.733334 c 1.33334,2.4 3.2,4.32 5.54667,5.706666 2.34667,1.386667 5.06667,2.08 8.05333,2.08 3.57334,0 6.50667,-0.96 8.85334,-2.88 2.29333,-1.92 3.46666,-4.48 3.46666,-7.68 0,-2.346666 -0.74666,-4.32 -2.13333,-5.919999 -1.44,-1.6 -3.62667,-3.04 -6.56,-4.373334 l -4,-1.76 c -1.49333,-0.64 -2.56,-1.28 -3.2,-1.813333 -0.64,-0.533333 -0.90667,-1.28 -0.90667,-2.2399999 0,-1.0666666 0.37334,-1.9199999 1.22667,-2.5066666 0.85333,-0.5866667 1.86667,-0.9066666 3.14667,-0.9066666 2.66666,0 4.90666,1.3866666 6.72,4.0533331 l 4.90666,-3.7866665 c -1.12,-2.0266666 -2.66666,-3.6266666 -4.64,-4.8533332 C 214.0475,0.64000099 211.70083,1.0070801e-6 209.03417,1.0070801e-6 Z"
       style="font-style:normal;font-variant:normal;font-weight:normal;font-stretch:normal;font-size:53.33333206px;font-family:CeraGR-Bold;-inkscape-font-specification:CeraGR-Bold;letter-spacing:20px"
       id="path4514" /><path
       d="m 274.23916,0.64000099 h -29.76 V 7.1466675 h 11.25333 V 35.84 h 7.2 V 7.1466675 h 11.30667 z"
       style="font-style:normal;font-variant:normal;font-weight:normal;font-stretch:normal;font-size:53.33333206px;font-family:CeraGR-Bold;-inkscape-font-specification:CeraGR-Bold;letter-spacing:20px"
       id="path4516" /><path
       d="m 314.84251,1.0070801e-6 c -5.22667,0 -9.6,1.7599999929199 -13.22667,5.2799998929199 -3.62666,3.5199999 -5.44,7.8400001 -5.44,12.9600001 0,5.173333 1.81334,9.493333 5.44,13.013333 3.62667,3.52 8,5.226666 13.22667,5.226666 5.17333,0 9.6,-1.706666 13.28,-5.226666 3.62667,-3.52 5.49333,-7.84 5.49333,-13.013333 0,-5.12 -1.86666,-9.4400002 -5.49333,-12.9600001 C 324.44251,1.760001 320.01584,1.0070801e-6 314.84251,1.0070801e-6 Z M 314.89584,6.6666675 c 3.2,0 5.92,1.12 8.05334,3.2533333 2.13333,2.1866662 3.25333,4.9600002 3.25333,8.3200002 0,3.413333 -1.12,6.186666 -3.25333,8.319999 -2.13334,2.186667 -4.85334,3.253334 -8.05334,3.253334 -3.30666,0 -6.02666,-1.066667 -8.16,-3.2 -2.13333,-2.133334 -3.14666,-4.96 -3.14666,-8.373333 0,-3.36 1.06666,-6.133334 3.2,-8.3200002 2.13333,-2.1333333 4.8,-3.2533333 8.10666,-3.2533333 z"
       style="font-style:normal;font-variant:normal;font-weight:normal;font-stretch:normal;font-size:53.33333206px;font-family:CeraGR-Bold;-inkscape-font-specification:CeraGR-Bold;letter-spacing:20px"
       id="path4518" /><path
       d="m 389.36749,35.84 -9.97333,-13.866666 c 1.92,-0.96 3.41333,-2.293333 4.53333,-4 1.06667,-1.706667 1.65333,-3.733333 1.65333,-5.973333 0,-3.4133335 -1.22666,-6.1333335 -3.57333,-8.2133334 -2.34667,-2.08 -5.38667,-3.14666661 -9.12,-3.14666661 H 359.66082 V 35.84 h 7.2 V 23.413334 h 5.28 l 9.12,12.426666 z M 366.86082,6.9866675 h 6.02667 c 1.6,0 2.93333,0.48 3.89333,1.3866666 0.96,0.96 1.44,2.1333329 1.44,3.6266669 0,1.546666 -0.48,2.773333 -1.44,3.68 -0.96,0.96 -2.24,1.386666 -3.89333,1.386666 h -6.02667 z"
       style="font-style:normal;font-variant:normal;font-weight:normal;font-stretch:normal;font-size:53.33333206px;font-family:CeraGR-Bold;-inkscape-font-specification:CeraGR-Bold;letter-spacing:20px"
       id="path4520" /><path
       d="m 440.27248,0.64000099 h -7.94667 L 424.53915,14.613334 416.80581,0.64000099 h -8 l 12.16,21.38666601 V 35.84 h 7.2 V 21.973334 Z"
       style="font-style:normal;font-variant:normal;font-weight:normal;font-stretch:normal;font-size:53.33333206px;font-family:CeraGR-Bold;-inkscape-font-specification:CeraGR-Bold;letter-spacing:20px"
       id="path4522" /></g></svg>