<?xml version="1.0" encoding="utf-8"?>
<!-- Generator: Adobe Illustrator 21.0.0, SVG Export Plug-In . SVG Version: 6.00 Build 0)  -->
<svg version="1.1" id="Слой_1" xmlns="http://www.w3.org/2000/svg" xmlns:xlink="http://www.w3.org/1999/xlink" x="0px" y="0px"
	 viewBox="0 0 283.6 52.7" style="enable-background:new 0 0 283.6 52.7;" xml:space="preserve">
<style type="text/css">
	.st0{fill:#141414;}
</style>
<g>
	<g>
		<g>
			<path class="st0" d="M281.3,50.9H2V2.2h279.3V50.9z M5.6,47.4h272.2V5.8H5.6V47.4z"/>
		</g>
		<g>
			<path class="st0" d="M47.2,28.5c0,2.5-0.8,4.5-2.3,6c-1.5,1.5-3.5,2.3-5.9,2.3c-2.4,0-4.3-0.8-5.9-2.3c-1.5-1.5-2.3-3.5-2.3-6
				V17.3h3.9v11.6c0,1.4,0.4,2.5,1.2,3.2c0.8,0.8,1.8,1.1,3,1.1c1.3,0,2.3-0.4,3.1-1.1c0.8-0.8,1.2-1.8,1.2-3.2V17.3h3.9V28.5z"/>
			<path class="st0" d="M104.9,17.9c1.1,0.7,1.9,1.5,2.5,2.6l-2.7,2.1c-1-1.5-2.2-2.2-3.7-2.2c-0.7,0-1.2,0.2-1.7,0.5
				c-0.5,0.3-0.7,0.8-0.7,1.4c0,0.5,0.2,0.9,0.5,1.2c0.3,0.3,0.9,0.6,1.7,1l2.2,1c1.6,0.7,2.8,1.5,3.6,2.4c0.8,0.9,1.2,1.9,1.2,3.2
				c0,1.7-0.6,3.1-1.9,4.2c-1.3,1-2.9,1.6-4.8,1.6c-1.6,0-3.1-0.4-4.4-1.2c-1.3-0.8-2.3-1.8-3-3.1l2.7-2c1.3,1.9,2.9,2.8,4.7,2.8
				c0.9,0,1.5-0.2,2-0.6c0.5-0.4,0.7-0.9,0.7-1.6c0-0.4-0.1-0.7-0.3-1s-0.5-0.5-0.8-0.7c-0.3-0.2-0.7-0.4-1.4-0.7l-2.1-0.9
				c-1.5-0.7-2.6-1.5-3.4-2.3c-0.8-0.9-1.2-1.9-1.2-3.2c0-1.6,0.6-2.9,1.8-3.9c1.2-1,2.7-1.5,4.6-1.5
				C102.5,16.9,103.8,17.2,104.9,17.9z"/>
			<path class="st0" d="M143.4,20.8h-6.2v15.7h-3.9V20.8h-6.1v-3.6h16.2V20.8z"/>
			<path class="st0" d="M179.6,19.8c2,1.9,3,4.3,3,7.1s-1,5.2-3,7.1c-2,1.9-4.4,2.9-7.2,2.9c-2.8,0-5.2-1-7.2-2.9
				c-2-1.9-3-4.3-3-7.1s1-5.2,3-7.1c2-1.9,4.4-2.9,7.2-2.9C175.2,16.9,177.6,17.9,179.6,19.8z M167.9,22.3c-1.2,1.2-1.7,2.7-1.7,4.5
				c0,1.9,0.6,3.4,1.7,4.6c1.2,1.2,2.6,1.8,4.4,1.8c1.8,0,3.2-0.6,4.4-1.8c1.2-1.2,1.8-2.7,1.8-4.5c0-1.8-0.6-3.4-1.8-4.5
				c-1.2-1.2-2.6-1.8-4.4-1.8C170.6,20.6,169.1,21.1,167.9,22.3z"/>
			<path class="st0" d="M215.4,36.5l-5-6.8h-2.9v6.8h-3.9V17.3h7.2c2,0,3.7,0.6,5,1.7c1.3,1.1,1.9,2.6,1.9,4.5
				c0,1.2-0.3,2.3-0.9,3.2c-0.6,0.9-1.4,1.7-2.5,2.2l5.4,7.6H215.4z M207.5,26.2h3.3c0.9,0,1.6-0.3,2.1-0.8c0.5-0.5,0.8-1.2,0.8-2
				c0-0.8-0.3-1.5-0.8-2c-0.5-0.5-1.2-0.8-2.1-0.8h-3.3V26.2z"/>
			<path class="st0" d="M247.7,28.9v7.6h-3.9v-7.5l-6.6-11.7h4.4l4.2,7.6l4.2-7.6h4.3L247.7,28.9z"/>
		</g>
	</g>
</g>
</svg>
